<?xml version="1.0" encoding="utf-8" standalone="no"?>
<!DOCTYPE svg PUBLIC "-//W3C//DTD SVG 1.1//EN"
  "http://www.w3.org/Graphics/SVG/1.1/DTD/svg11.dtd">
<svg xmlns:xlink="http://www.w3.org/1999/xlink" width="720pt" height="432pt" viewBox="0 0 720 432" xmlns="http://www.w3.org/2000/svg" version="1.1">
 <metadata>
  <rdf:RDF xmlns:dc="http://purl.org/dc/elements/1.1/" xmlns:cc="http://creativecommons.org/ns#" xmlns:rdf="http://www.w3.org/1999/02/22-rdf-syntax-ns#">
   <cc:Work>
    <dc:type rdf:resource="http://purl.org/dc/dcmitype/StillImage"/>
    <dc:date>2025-11-14T17:10:44.033745</dc:date>
    <dc:format>image/svg+xml</dc:format>
    <dc:creator>
     <cc:Agent>
      <dc:title>Matplotlib v3.10.7, https://matplotlib.org/</dc:title>
     </cc:Agent>
    </dc:creator>
   </cc:Work>
  </rdf:RDF>
 </metadata>
 <defs>
  <style type="text/css">*{stroke-linejoin: round; stroke-linecap: butt}</style>
 </defs>
 <g id="figure_1">
  <g id="patch_1">
   <path d="M 0 432 
L 720 432 
L 720 0 
L 0 0 
z
" style="fill: #ffffff"/>
  </g>
  <g id="axes_1">
   <g id="patch_2">
    <path d="M 90 384.48 
L 648 384.48 
L 648 51.84 
L 90 51.84 
z
" style="fill: #ffffff"/>
   </g>
   <g id="matplotlib.axis_1">
    <g id="xtick_1">
     <g id="line2d_1">
      <path d="M 110.437141 384.48 
L 110.437141 51.84 
" clip-path="url(#p36efd47b6c)" style="fill: none; stroke: #b0b0b0; stroke-width: 0.8; stroke-linecap: square"/>
     </g>
     <g id="line2d_2">
      <defs>
       <path id="m0bbc7e04ee" d="M 0 0 
L 0 3.5 
" style="stroke: #000000; stroke-width: 0.8"/>
      </defs>
      <g>
       <use xlink:href="#m0bbc7e04ee" x="110.437141" y="384.48" style="stroke: #000000; stroke-width: 0.8"/>
      </g>
     </g>
     <g id="text_1">
      <!-- −2 -->
      <g transform="translate(103.066047 399.078438) scale(0.1 -0.1)">
       <defs>
        <path id="DejaVuSans-2212" d="M 678 2272 
L 4684 2272 
L 4684 1741 
L 678 1741 
L 678 2272 
z
" transform="scale(0.015625)"/>
        <path id="DejaVuSans-32" d="M 1228 531 
L 3431 531 
L 3431 0 
L 469 0 
L 469 531 
Q 828 903 1448 1529 
Q 2069 2156 2228 2338 
Q 2531 2678 2651 2914 
Q 2772 3150 2772 3378 
Q 2772 3750 2511 3984 
Q 2250 4219 1831 4219 
Q 1534 4219 1204 4116 
Q 875 4013 500 3803 
L 500 4441 
Q 881 4594 1212 4672 
Q 1544 4750 1819 4750 
Q 2544 4750 2975 4387 
Q 3406 4025 3406 3419 
Q 3406 3131 3298 2873 
Q 3191 2616 2906 2266 
Q 2828 2175 2409 1742 
Q 1991 1309 1228 531 
z
" transform="scale(0.015625)"/>
       </defs>
       <use xlink:href="#DejaVuSans-2212"/>
       <use xlink:href="#DejaVuSans-32" transform="translate(83.789062 0)"/>
      </g>
     </g>
    </g>
    <g id="xtick_2">
     <g id="line2d_3">
      <path d="M 208.870738 384.48 
L 208.870738 51.84 
" clip-path="url(#p36efd47b6c)" style="fill: none; stroke: #b0b0b0; stroke-width: 0.8; stroke-linecap: square"/>
     </g>
     <g id="line2d_4">
      <g>
       <use xlink:href="#m0bbc7e04ee" x="208.870738" y="384.48" style="stroke: #000000; stroke-width: 0.8"/>
      </g>
     </g>
     <g id="text_2">
      <!-- 0 -->
      <g transform="translate(205.689488 399.078438) scale(0.1 -0.1)">
       <defs>
        <path id="DejaVuSans-30" d="M 2034 4250 
Q 1547 4250 1301 3770 
Q 1056 3291 1056 2328 
Q 1056 1369 1301 889 
Q 1547 409 2034 409 
Q 2525 409 2770 889 
Q 3016 1369 3016 2328 
Q 3016 3291 2770 3770 
Q 2525 4250 2034 4250 
z
M 2034 4750 
Q 2819 4750 3233 4129 
Q 3647 3509 3647 2328 
Q 3647 1150 3233 529 
Q 2819 -91 2034 -91 
Q 1250 -91 836 529 
Q 422 1150 422 2328 
Q 422 3509 836 4129 
Q 1250 4750 2034 4750 
z
" transform="scale(0.015625)"/>
       </defs>
       <use xlink:href="#DejaVuSans-30"/>
      </g>
     </g>
    </g>
    <g id="xtick_3">
     <g id="line2d_5">
      <path d="M 307.304335 384.48 
L 307.304335 51.84 
" clip-path="url(#p36efd47b6c)" style="fill: none; stroke: #b0b0b0; stroke-width: 0.8; stroke-linecap: square"/>
     </g>
     <g id="line2d_6">
      <g>
       <use xlink:href="#m0bbc7e04ee" x="307.304335" y="384.48" style="stroke: #000000; stroke-width: 0.8"/>
      </g>
     </g>
     <g id="text_3">
      <!-- 2 -->
      <g transform="translate(304.123085 399.078438) scale(0.1 -0.1)">
       <use xlink:href="#DejaVuSans-32"/>
      </g>
     </g>
    </g>
    <g id="xtick_4">
     <g id="line2d_7">
      <path d="M 405.737932 384.48 
L 405.737932 51.84 
" clip-path="url(#p36efd47b6c)" style="fill: none; stroke: #b0b0b0; stroke-width: 0.8; stroke-linecap: square"/>
     </g>
     <g id="line2d_8">
      <g>
       <use xlink:href="#m0bbc7e04ee" x="405.737932" y="384.48" style="stroke: #000000; stroke-width: 0.8"/>
      </g>
     </g>
     <g id="text_4">
      <!-- 4 -->
      <g transform="translate(402.556682 399.078438) scale(0.1 -0.1)">
       <defs>
        <path id="DejaVuSans-34" d="M 2419 4116 
L 825 1625 
L 2419 1625 
L 2419 4116 
z
M 2253 4666 
L 3047 4666 
L 3047 1625 
L 3713 1625 
L 3713 1100 
L 3047 1100 
L 3047 0 
L 2419 0 
L 2419 1100 
L 313 1100 
L 313 1709 
L 2253 4666 
z
" transform="scale(0.015625)"/>
       </defs>
       <use xlink:href="#DejaVuSans-34"/>
      </g>
     </g>
    </g>
    <g id="xtick_5">
     <g id="line2d_9">
      <path d="M 504.17153 384.48 
L 504.17153 51.84 
" clip-path="url(#p36efd47b6c)" style="fill: none; stroke: #b0b0b0; stroke-width: 0.8; stroke-linecap: square"/>
     </g>
     <g id="line2d_10">
      <g>
       <use xlink:href="#m0bbc7e04ee" x="504.17153" y="384.48" style="stroke: #000000; stroke-width: 0.8"/>
      </g>
     </g>
     <g id="text_5">
      <!-- 6 -->
      <g transform="translate(500.99028 399.078438) scale(0.1 -0.1)">
       <defs>
        <path id="DejaVuSans-36" d="M 2113 2584 
Q 1688 2584 1439 2293 
Q 1191 2003 1191 1497 
Q 1191 994 1439 701 
Q 1688 409 2113 409 
Q 2538 409 2786 701 
Q 3034 994 3034 1497 
Q 3034 2003 2786 2293 
Q 2538 2584 2113 2584 
z
M 3366 4563 
L 3366 3988 
Q 3128 4100 2886 4159 
Q 2644 4219 2406 4219 
Q 1781 4219 1451 3797 
Q 1122 3375 1075 2522 
Q 1259 2794 1537 2939 
Q 1816 3084 2150 3084 
Q 2853 3084 3261 2657 
Q 3669 2231 3669 1497 
Q 3669 778 3244 343 
Q 2819 -91 2113 -91 
Q 1303 -91 875 529 
Q 447 1150 447 2328 
Q 447 3434 972 4092 
Q 1497 4750 2381 4750 
Q 2619 4750 2861 4703 
Q 3103 4656 3366 4563 
z
" transform="scale(0.015625)"/>
       </defs>
       <use xlink:href="#DejaVuSans-36"/>
      </g>
     </g>
    </g>
    <g id="xtick_6">
     <g id="line2d_11">
      <path d="M 602.605127 384.48 
L 602.605127 51.84 
" clip-path="url(#p36efd47b6c)" style="fill: none; stroke: #b0b0b0; stroke-width: 0.8; stroke-linecap: square"/>
     </g>
     <g id="line2d_12">
      <g>
       <use xlink:href="#m0bbc7e04ee" x="602.605127" y="384.48" style="stroke: #000000; stroke-width: 0.8"/>
      </g>
     </g>
     <g id="text_6">
      <!-- 8 -->
      <g transform="translate(599.423877 399.078438) scale(0.1 -0.1)">
       <defs>
        <path id="DejaVuSans-38" d="M 2034 2216 
Q 1584 2216 1326 1975 
Q 1069 1734 1069 1313 
Q 1069 891 1326 650 
Q 1584 409 2034 409 
Q 2484 409 2743 651 
Q 3003 894 3003 1313 
Q 3003 1734 2745 1975 
Q 2488 2216 2034 2216 
z
M 1403 2484 
Q 997 2584 770 2862 
Q 544 3141 544 3541 
Q 544 4100 942 4425 
Q 1341 4750 2034 4750 
Q 2731 4750 3128 4425 
Q 3525 4100 3525 3541 
Q 3525 3141 3298 2862 
Q 3072 2584 2669 2484 
Q 3125 2378 3379 2068 
Q 3634 1759 3634 1313 
Q 3634 634 3220 271 
Q 2806 -91 2034 -91 
Q 1263 -91 848 271 
Q 434 634 434 1313 
Q 434 1759 690 2068 
Q 947 2378 1403 2484 
z
M 1172 3481 
Q 1172 3119 1398 2916 
Q 1625 2713 2034 2713 
Q 2441 2713 2670 2916 
Q 2900 3119 2900 3481 
Q 2900 3844 2670 4047 
Q 2441 4250 2034 4250 
Q 1625 4250 1398 4047 
Q 1172 3844 1172 3481 
z
" transform="scale(0.015625)"/>
       </defs>
       <use xlink:href="#DejaVuSans-38"/>
      </g>
     </g>
    </g>
    <g id="text_7">
     <!-- E -->
     <g transform="translate(365.840625 412.756563) scale(0.1 -0.1)">
      <defs>
       <path id="DejaVuSans-45" d="M 628 4666 
L 3578 4666 
L 3578 4134 
L 1259 4134 
L 1259 2753 
L 3481 2753 
L 3481 2222 
L 1259 2222 
L 1259 531 
L 3634 531 
L 3634 0 
L 628 0 
L 628 4666 
z
" transform="scale(0.015625)"/>
      </defs>
      <use xlink:href="#DejaVuSans-45"/>
     </g>
    </g>
   </g>
   <g id="matplotlib.axis_2">
    <g id="ytick_1">
     <g id="line2d_13">
      <path d="M 90 347.694012 
L 648 347.694012 
" clip-path="url(#p36efd47b6c)" style="fill: none; stroke: #b0b0b0; stroke-width: 0.8; stroke-linecap: square"/>
     </g>
     <g id="line2d_14">
      <defs>
       <path id="m79e6e978e8" d="M 0 0 
L -3.5 0 
" style="stroke: #000000; stroke-width: 0.8"/>
      </defs>
      <g>
       <use xlink:href="#m79e6e978e8" x="90" y="347.694012" style="stroke: #000000; stroke-width: 0.8"/>
      </g>
     </g>
     <g id="text_8">
      <!-- 0.0 -->
      <g transform="translate(67.096875 351.493231) scale(0.1 -0.1)">
       <defs>
        <path id="DejaVuSans-2e" d="M 684 794 
L 1344 794 
L 1344 0 
L 684 0 
L 684 794 
z
" transform="scale(0.015625)"/>
       </defs>
       <use xlink:href="#DejaVuSans-30"/>
       <use xlink:href="#DejaVuSans-2e" transform="translate(63.623047 0)"/>
       <use xlink:href="#DejaVuSans-30" transform="translate(95.410156 0)"/>
      </g>
     </g>
    </g>
    <g id="ytick_2">
     <g id="line2d_15">
      <path d="M 90 301.581329 
L 648 301.581329 
" clip-path="url(#p36efd47b6c)" style="fill: none; stroke: #b0b0b0; stroke-width: 0.8; stroke-linecap: square"/>
     </g>
     <g id="line2d_16">
      <g>
       <use xlink:href="#m79e6e978e8" x="90" y="301.581329" style="stroke: #000000; stroke-width: 0.8"/>
      </g>
     </g>
     <g id="text_9">
      <!-- 2.5 -->
      <g transform="translate(67.096875 305.380548) scale(0.1 -0.1)">
       <defs>
        <path id="DejaVuSans-35" d="M 691 4666 
L 3169 4666 
L 3169 4134 
L 1269 4134 
L 1269 2991 
Q 1406 3038 1543 3061 
Q 1681 3084 1819 3084 
Q 2600 3084 3056 2656 
Q 3513 2228 3513 1497 
Q 3513 744 3044 326 
Q 2575 -91 1722 -91 
Q 1428 -91 1123 -41 
Q 819 9 494 109 
L 494 744 
Q 775 591 1075 516 
Q 1375 441 1709 441 
Q 2250 441 2565 725 
Q 2881 1009 2881 1497 
Q 2881 1984 2565 2268 
Q 2250 2553 1709 2553 
Q 1456 2553 1204 2497 
Q 953 2441 691 2322 
L 691 4666 
z
" transform="scale(0.015625)"/>
       </defs>
       <use xlink:href="#DejaVuSans-32"/>
       <use xlink:href="#DejaVuSans-2e" transform="translate(63.623047 0)"/>
       <use xlink:href="#DejaVuSans-35" transform="translate(95.410156 0)"/>
      </g>
     </g>
    </g>
    <g id="ytick_3">
     <g id="line2d_17">
      <path d="M 90 255.468647 
L 648 255.468647 
" clip-path="url(#p36efd47b6c)" style="fill: none; stroke: #b0b0b0; stroke-width: 0.8; stroke-linecap: square"/>
     </g>
     <g id="line2d_18">
      <g>
       <use xlink:href="#m79e6e978e8" x="90" y="255.468647" style="stroke: #000000; stroke-width: 0.8"/>
      </g>
     </g>
     <g id="text_10">
      <!-- 5.0 -->
      <g transform="translate(67.096875 259.267865) scale(0.1 -0.1)">
       <use xlink:href="#DejaVuSans-35"/>
       <use xlink:href="#DejaVuSans-2e" transform="translate(63.623047 0)"/>
       <use xlink:href="#DejaVuSans-30" transform="translate(95.410156 0)"/>
      </g>
     </g>
    </g>
    <g id="ytick_4">
     <g id="line2d_19">
      <path d="M 90 209.355964 
L 648 209.355964 
" clip-path="url(#p36efd47b6c)" style="fill: none; stroke: #b0b0b0; stroke-width: 0.8; stroke-linecap: square"/>
     </g>
     <g id="line2d_20">
      <g>
       <use xlink:href="#m79e6e978e8" x="90" y="209.355964" style="stroke: #000000; stroke-width: 0.8"/>
      </g>
     </g>
     <g id="text_11">
      <!-- 7.5 -->
      <g transform="translate(67.096875 213.155183) scale(0.1 -0.1)">
       <defs>
        <path id="DejaVuSans-37" d="M 525 4666 
L 3525 4666 
L 3525 4397 
L 1831 0 
L 1172 0 
L 2766 4134 
L 525 4134 
L 525 4666 
z
" transform="scale(0.015625)"/>
       </defs>
       <use xlink:href="#DejaVuSans-37"/>
       <use xlink:href="#DejaVuSans-2e" transform="translate(63.623047 0)"/>
       <use xlink:href="#DejaVuSans-35" transform="translate(95.410156 0)"/>
      </g>
     </g>
    </g>
    <g id="ytick_5">
     <g id="line2d_21">
      <path d="M 90 163.243281 
L 648 163.243281 
" clip-path="url(#p36efd47b6c)" style="fill: none; stroke: #b0b0b0; stroke-width: 0.8; stroke-linecap: square"/>
     </g>
     <g id="line2d_22">
      <g>
       <use xlink:href="#m79e6e978e8" x="90" y="163.243281" style="stroke: #000000; stroke-width: 0.8"/>
      </g>
     </g>
     <g id="text_12">
      <!-- 10.0 -->
      <g transform="translate(60.734375 167.0425) scale(0.1 -0.1)">
       <defs>
        <path id="DejaVuSans-31" d="M 794 531 
L 1825 531 
L 1825 4091 
L 703 3866 
L 703 4441 
L 1819 4666 
L 2450 4666 
L 2450 531 
L 3481 531 
L 3481 0 
L 794 0 
L 794 531 
z
" transform="scale(0.015625)"/>
       </defs>
       <use xlink:href="#DejaVuSans-31"/>
       <use xlink:href="#DejaVuSans-30" transform="translate(63.623047 0)"/>
       <use xlink:href="#DejaVuSans-2e" transform="translate(127.246094 0)"/>
       <use xlink:href="#DejaVuSans-30" transform="translate(159.033203 0)"/>
      </g>
     </g>
    </g>
    <g id="ytick_6">
     <g id="line2d_23">
      <path d="M 90 117.130599 
L 648 117.130599 
" clip-path="url(#p36efd47b6c)" style="fill: none; stroke: #b0b0b0; stroke-width: 0.8; stroke-linecap: square"/>
     </g>
     <g id="line2d_24">
      <g>
       <use xlink:href="#m79e6e978e8" x="90" y="117.130599" style="stroke: #000000; stroke-width: 0.8"/>
      </g>
     </g>
     <g id="text_13">
      <!-- 12.5 -->
      <g transform="translate(60.734375 120.929817) scale(0.1 -0.1)">
       <use xlink:href="#DejaVuSans-31"/>
       <use xlink:href="#DejaVuSans-32" transform="translate(63.623047 0)"/>
       <use xlink:href="#DejaVuSans-2e" transform="translate(127.246094 0)"/>
       <use xlink:href="#DejaVuSans-35" transform="translate(159.033203 0)"/>
      </g>
     </g>
    </g>
    <g id="ytick_7">
     <g id="line2d_25">
      <path d="M 90 71.017916 
L 648 71.017916 
" clip-path="url(#p36efd47b6c)" style="fill: none; stroke: #b0b0b0; stroke-width: 0.8; stroke-linecap: square"/>
     </g>
     <g id="line2d_26">
      <g>
       <use xlink:href="#m79e6e978e8" x="90" y="71.017916" style="stroke: #000000; stroke-width: 0.8"/>
      </g>
     </g>
     <g id="text_14">
      <!-- 15.0 -->
      <g transform="translate(60.734375 74.817135) scale(0.1 -0.1)">
       <use xlink:href="#DejaVuSans-31"/>
       <use xlink:href="#DejaVuSans-35" transform="translate(63.623047 0)"/>
       <use xlink:href="#DejaVuSans-2e" transform="translate(127.246094 0)"/>
       <use xlink:href="#DejaVuSans-30" transform="translate(159.033203 0)"/>
      </g>
     </g>
    </g>
    <g id="text_15">
     <!-- N -->
     <g transform="translate(54.654688 221.900625) rotate(-90) scale(0.1 -0.1)">
      <defs>
       <path id="DejaVuSans-4e" d="M 628 4666 
L 1478 4666 
L 3547 763 
L 3547 4666 
L 4159 4666 
L 4159 0 
L 3309 0 
L 1241 3903 
L 1241 0 
L 628 0 
L 628 4666 
z
" transform="scale(0.015625)"/>
      </defs>
      <use xlink:href="#DejaVuSans-4e"/>
     </g>
    </g>
   </g>
   <g id="line2d_27">
    <path d="M 179.685177 362.081169 
L 278.118774 362.081169 
L 327.335572 362.081169 
L 376.552371 362.081169 
L 425.769169 362.081169 
L 474.985968 362.081169 
L 524.202767 362.081169 
L 573.419565 362.081169 
L 622.636364 362.081169 
L 622.636364 343.636096 
L 622.636364 325.191023 
L 622.636364 306.74595 
L 622.636364 288.300877 
L 622.636364 269.855804 
L 622.636364 251.410731 
L 622.636364 232.965658 
L 622.636364 214.520584 
L 622.636364 196.075511 
L 622.636364 177.630438 
L 622.636364 159.185365 
L 622.636364 140.740292 
L 622.636364 122.295219 
L 622.636364 103.850146 
L 622.636364 85.405073 
L 622.636364 66.96 
L 573.419565 66.96 
L 524.202767 66.96 
L 474.985968 66.96 
L 425.769169 66.96 
L 376.552371 66.96 
L 327.335572 66.96 
L 278.118774 66.96 
L 228.901975 66.96 
L 179.685177 66.96 
L 179.685177 85.405073 
L 179.685177 103.850146 
L 179.685177 122.295219 
L 179.685177 140.740292 
L 130.468378 159.185365 
L 130.468378 177.630438 
L 130.468378 196.075511 
L 130.468378 214.520584 
L 130.468378 232.965658 
L 130.468378 251.410731 
L 130.468378 269.855804 
L 130.468378 288.300877 
L 130.468378 306.74595 
L 130.468378 325.191023 
L 130.468378 343.636096 
L 179.685177 362.081169 
" clip-path="url(#p36efd47b6c)" style="fill: none; stroke: #0000ff; stroke-linecap: square"/>
    <defs>
     <path id="mf8db90ba99" d="M 0 2 
C 0.530406 2 1.03916 1.789267 1.414214 1.414214 
C 1.789267 1.03916 2 0.530406 2 0 
C 2 -0.530406 1.789267 -1.03916 1.414214 -1.414214 
C 1.03916 -1.789267 0.530406 -2 0 -2 
C -0.530406 -2 -1.03916 -1.789267 -1.414214 -1.414214 
C -1.789267 -1.03916 -2 -0.530406 -2 0 
C -2 0.530406 -1.789267 1.03916 -1.414214 1.414214 
C -1.03916 1.789267 -0.530406 2 0 2 
z
" style="stroke: #0000ff"/>
    </defs>
    <g clip-path="url(#p36efd47b6c)">
     <use xlink:href="#mf8db90ba99" x="179.685177" y="362.081169" style="fill: #0000ff; stroke: #0000ff"/>
     <use xlink:href="#mf8db90ba99" x="278.118774" y="362.081169" style="fill: #0000ff; stroke: #0000ff"/>
     <use xlink:href="#mf8db90ba99" x="327.335572" y="362.081169" style="fill: #0000ff; stroke: #0000ff"/>
     <use xlink:href="#mf8db90ba99" x="376.552371" y="362.081169" style="fill: #0000ff; stroke: #0000ff"/>
     <use xlink:href="#mf8db90ba99" x="425.769169" y="362.081169" style="fill: #0000ff; stroke: #0000ff"/>
     <use xlink:href="#mf8db90ba99" x="474.985968" y="362.081169" style="fill: #0000ff; stroke: #0000ff"/>
     <use xlink:href="#mf8db90ba99" x="524.202767" y="362.081169" style="fill: #0000ff; stroke: #0000ff"/>
     <use xlink:href="#mf8db90ba99" x="573.419565" y="362.081169" style="fill: #0000ff; stroke: #0000ff"/>
     <use xlink:href="#mf8db90ba99" x="622.636364" y="362.081169" style="fill: #0000ff; stroke: #0000ff"/>
     <use xlink:href="#mf8db90ba99" x="622.636364" y="343.636096" style="fill: #0000ff; stroke: #0000ff"/>
     <use xlink:href="#mf8db90ba99" x="622.636364" y="325.191023" style="fill: #0000ff; stroke: #0000ff"/>
     <use xlink:href="#mf8db90ba99" x="622.636364" y="306.74595" style="fill: #0000ff; stroke: #0000ff"/>
     <use xlink:href="#mf8db90ba99" x="622.636364" y="288.300877" style="fill: #0000ff; stroke: #0000ff"/>
     <use xlink:href="#mf8db90ba99" x="622.636364" y="269.855804" style="fill: #0000ff; stroke: #0000ff"/>
     <use xlink:href="#mf8db90ba99" x="622.636364" y="251.410731" style="fill: #0000ff; stroke: #0000ff"/>
     <use xlink:href="#mf8db90ba99" x="622.636364" y="232.965658" style="fill: #0000ff; stroke: #0000ff"/>
     <use xlink:href="#mf8db90ba99" x="622.636364" y="214.520584" style="fill: #0000ff; stroke: #0000ff"/>
     <use xlink:href="#mf8db90ba99" x="622.636364" y="196.075511" style="fill: #0000ff; stroke: #0000ff"/>
     <use xlink:href="#mf8db90ba99" x="622.636364" y="177.630438" style="fill: #0000ff; stroke: #0000ff"/>
     <use xlink:href="#mf8db90ba99" x="622.636364" y="159.185365" style="fill: #0000ff; stroke: #0000ff"/>
     <use xlink:href="#mf8db90ba99" x="622.636364" y="140.740292" style="fill: #0000ff; stroke: #0000ff"/>
     <use xlink:href="#mf8db90ba99" x="622.636364" y="122.295219" style="fill: #0000ff; stroke: #0000ff"/>
     <use xlink:href="#mf8db90ba99" x="622.636364" y="103.850146" style="fill: #0000ff; stroke: #0000ff"/>
     <use xlink:href="#mf8db90ba99" x="622.636364" y="85.405073" style="fill: #0000ff; stroke: #0000ff"/>
     <use xlink:href="#mf8db90ba99" x="622.636364" y="66.96" style="fill: #0000ff; stroke: #0000ff"/>
     <use xlink:href="#mf8db90ba99" x="573.419565" y="66.96" style="fill: #0000ff; stroke: #0000ff"/>
     <use xlink:href="#mf8db90ba99" x="524.202767" y="66.96" style="fill: #0000ff; stroke: #0000ff"/>
     <use xlink:href="#mf8db90ba99" x="474.985968" y="66.96" style="fill: #0000ff; stroke: #0000ff"/>
     <use xlink:href="#mf8db90ba99" x="425.769169" y="66.96" style="fill: #0000ff; stroke: #0000ff"/>
     <use xlink:href="#mf8db90ba99" x="376.552371" y="66.96" style="fill: #0000ff; stroke: #0000ff"/>
     <use xlink:href="#mf8db90ba99" x="327.335572" y="66.96" style="fill: #0000ff; stroke: #0000ff"/>
     <use xlink:href="#mf8db90ba99" x="278.118774" y="66.96" style="fill: #0000ff; stroke: #0000ff"/>
     <use xlink:href="#mf8db90ba99" x="228.901975" y="66.96" style="fill: #0000ff; stroke: #0000ff"/>
     <use xlink:href="#mf8db90ba99" x="179.685177" y="66.96" style="fill: #0000ff; stroke: #0000ff"/>
     <use xlink:href="#mf8db90ba99" x="179.685177" y="85.405073" style="fill: #0000ff; stroke: #0000ff"/>
     <use xlink:href="#mf8db90ba99" x="179.685177" y="103.850146" style="fill: #0000ff; stroke: #0000ff"/>
     <use xlink:href="#mf8db90ba99" x="179.685177" y="122.295219" style="fill: #0000ff; stroke: #0000ff"/>
     <use xlink:href="#mf8db90ba99" x="179.685177" y="140.740292" style="fill: #0000ff; stroke: #0000ff"/>
     <use xlink:href="#mf8db90ba99" x="130.468378" y="159.185365" style="fill: #0000ff; stroke: #0000ff"/>
     <use xlink:href="#mf8db90ba99" x="130.468378" y="177.630438" style="fill: #0000ff; stroke: #0000ff"/>
     <use xlink:href="#mf8db90ba99" x="130.468378" y="196.075511" style="fill: #0000ff; stroke: #0000ff"/>
     <use xlink:href="#mf8db90ba99" x="130.468378" y="214.520584" style="fill: #0000ff; stroke: #0000ff"/>
     <use xlink:href="#mf8db90ba99" x="130.468378" y="232.965658" style="fill: #0000ff; stroke: #0000ff"/>
     <use xlink:href="#mf8db90ba99" x="130.468378" y="251.410731" style="fill: #0000ff; stroke: #0000ff"/>
     <use xlink:href="#mf8db90ba99" x="130.468378" y="269.855804" style="fill: #0000ff; stroke: #0000ff"/>
     <use xlink:href="#mf8db90ba99" x="130.468378" y="288.300877" style="fill: #0000ff; stroke: #0000ff"/>
     <use xlink:href="#mf8db90ba99" x="130.468378" y="306.74595" style="fill: #0000ff; stroke: #0000ff"/>
     <use xlink:href="#mf8db90ba99" x="130.468378" y="325.191023" style="fill: #0000ff; stroke: #0000ff"/>
     <use xlink:href="#mf8db90ba99" x="130.468378" y="343.636096" style="fill: #0000ff; stroke: #0000ff"/>
     <use xlink:href="#mf8db90ba99" x="179.685177" y="362.081169" style="fill: #0000ff; stroke: #0000ff"/>
    </g>
   </g>
   <g id="line2d_28">
    <path d="M 147.686179 349.703571 
L 390.330882 367.347678 
L 372.311943 362.081169 
L 386.34991 369.36 
L 417.766924 362.081169 
L 487.26925 356.338753 
L 427.393768 356.061667 
L 605.160998 350.040917 
L 542.128571 368.951683 
L 543.195397 343.275314 
L 590.374641 341.19032 
L 622.636364 323.305213 
L 539.619072 306.227106 
L 622.636364 279.965344 
L 612.989773 262.390891 
L 591.916398 280.472338 
L 602.181518 241.34507 
L 607.850369 183.904673 
L 607.871556 166.411975 
L 622.636364 160.274809 
L 622.636364 155.416334 
L 592.948301 87.271356 
L 591.725622 86.420862 
L 591.030128 79.008805 
L 589.627604 72.541245 
L 606.289874 91.121191 
L 557.018376 72.22813 
L 422.990033 66.96 
L 426.639486 66.96 
L 277.530292 66.96 
L 421.545751 66.96 
L 277.014754 66.96 
L 197.47394 84.318976 
L 131.116904 72.887745 
L 179.685177 102.90457 
L 179.685177 102.370103 
L 179.685177 121.847944 
L 154.847006 137.738825 
L 162.326741 123.576131 
L 115.363636 166.701944 
L 162.857107 269.360045 
L 130.468378 197.614542 
L 144.746491 250.297986 
L 161.056987 268.51575 
L 163.059419 313.331355 
L 164.985489 270.664185 
L 166.012636 271.222633 
L 162.39498 293.933466 
L 276.538612 367.718326 
L 229.356188 362.081169 
" clip-path="url(#p36efd47b6c)" style="fill: none; stroke: #ff0000; stroke-linecap: square"/>
    <defs>
     <path id="m514e7446b0" d="M 0 -2 
L -2 2 
L 2 2 
z
" style="stroke: #ff0000; stroke-linejoin: miter"/>
    </defs>
    <g clip-path="url(#p36efd47b6c)">
     <use xlink:href="#m514e7446b0" x="147.686179" y="349.703571" style="fill: #ff0000; stroke: #ff0000; stroke-linejoin: miter"/>
     <use xlink:href="#m514e7446b0" x="390.330882" y="367.347678" style="fill: #ff0000; stroke: #ff0000; stroke-linejoin: miter"/>
     <use xlink:href="#m514e7446b0" x="372.311943" y="362.081169" style="fill: #ff0000; stroke: #ff0000; stroke-linejoin: miter"/>
     <use xlink:href="#m514e7446b0" x="386.34991" y="369.36" style="fill: #ff0000; stroke: #ff0000; stroke-linejoin: miter"/>
     <use xlink:href="#m514e7446b0" x="417.766924" y="362.081169" style="fill: #ff0000; stroke: #ff0000; stroke-linejoin: miter"/>
     <use xlink:href="#m514e7446b0" x="487.26925" y="356.338753" style="fill: #ff0000; stroke: #ff0000; stroke-linejoin: miter"/>
     <use xlink:href="#m514e7446b0" x="427.393768" y="356.061667" style="fill: #ff0000; stroke: #ff0000; stroke-linejoin: miter"/>
     <use xlink:href="#m514e7446b0" x="605.160998" y="350.040917" style="fill: #ff0000; stroke: #ff0000; stroke-linejoin: miter"/>
     <use xlink:href="#m514e7446b0" x="542.128571" y="368.951683" style="fill: #ff0000; stroke: #ff0000; stroke-linejoin: miter"/>
     <use xlink:href="#m514e7446b0" x="543.195397" y="343.275314" style="fill: #ff0000; stroke: #ff0000; stroke-linejoin: miter"/>
     <use xlink:href="#m514e7446b0" x="590.374641" y="341.19032" style="fill: #ff0000; stroke: #ff0000; stroke-linejoin: miter"/>
     <use xlink:href="#m514e7446b0" x="622.636364" y="323.305213" style="fill: #ff0000; stroke: #ff0000; stroke-linejoin: miter"/>
     <use xlink:href="#m514e7446b0" x="539.619072" y="306.227106" style="fill: #ff0000; stroke: #ff0000; stroke-linejoin: miter"/>
     <use xlink:href="#m514e7446b0" x="622.636364" y="279.965344" style="fill: #ff0000; stroke: #ff0000; stroke-linejoin: miter"/>
     <use xlink:href="#m514e7446b0" x="612.989773" y="262.390891" style="fill: #ff0000; stroke: #ff0000; stroke-linejoin: miter"/>
     <use xlink:href="#m514e7446b0" x="591.916398" y="280.472338" style="fill: #ff0000; stroke: #ff0000; stroke-linejoin: miter"/>
     <use xlink:href="#m514e7446b0" x="602.181518" y="241.34507" style="fill: #ff0000; stroke: #ff0000; stroke-linejoin: miter"/>
     <use xlink:href="#m514e7446b0" x="607.850369" y="183.904673" style="fill: #ff0000; stroke: #ff0000; stroke-linejoin: miter"/>
     <use xlink:href="#m514e7446b0" x="607.871556" y="166.411975" style="fill: #ff0000; stroke: #ff0000; stroke-linejoin: miter"/>
     <use xlink:href="#m514e7446b0" x="622.636364" y="160.274809" style="fill: #ff0000; stroke: #ff0000; stroke-linejoin: miter"/>
     <use xlink:href="#m514e7446b0" x="622.636364" y="155.416334" style="fill: #ff0000; stroke: #ff0000; stroke-linejoin: miter"/>
     <use xlink:href="#m514e7446b0" x="592.948301" y="87.271356" style="fill: #ff0000; stroke: #ff0000; stroke-linejoin: miter"/>
     <use xlink:href="#m514e7446b0" x="591.725622" y="86.420862" style="fill: #ff0000; stroke: #ff0000; stroke-linejoin: miter"/>
     <use xlink:href="#m514e7446b0" x="591.030128" y="79.008805" style="fill: #ff0000; stroke: #ff0000; stroke-linejoin: miter"/>
     <use xlink:href="#m514e7446b0" x="589.627604" y="72.541245" style="fill: #ff0000; stroke: #ff0000; stroke-linejoin: miter"/>
     <use xlink:href="#m514e7446b0" x="606.289874" y="91.121191" style="fill: #ff0000; stroke: #ff0000; stroke-linejoin: miter"/>
     <use xlink:href="#m514e7446b0" x="557.018376" y="72.22813" style="fill: #ff0000; stroke: #ff0000; stroke-linejoin: miter"/>
     <use xlink:href="#m514e7446b0" x="422.990033" y="66.96" style="fill: #ff0000; stroke: #ff0000; stroke-linejoin: miter"/>
     <use xlink:href="#m514e7446b0" x="426.639486" y="66.96" style="fill: #ff0000; stroke: #ff0000; stroke-linejoin: miter"/>
     <use xlink:href="#m514e7446b0" x="277.530292" y="66.96" style="fill: #ff0000; stroke: #ff0000; stroke-linejoin: miter"/>
     <use xlink:href="#m514e7446b0" x="421.545751" y="66.96" style="fill: #ff0000; stroke: #ff0000; stroke-linejoin: miter"/>
     <use xlink:href="#m514e7446b0" x="277.014754" y="66.96" style="fill: #ff0000; stroke: #ff0000; stroke-linejoin: miter"/>
     <use xlink:href="#m514e7446b0" x="197.47394" y="84.318976" style="fill: #ff0000; stroke: #ff0000; stroke-linejoin: miter"/>
     <use xlink:href="#m514e7446b0" x="131.116904" y="72.887745" style="fill: #ff0000; stroke: #ff0000; stroke-linejoin: miter"/>
     <use xlink:href="#m514e7446b0" x="179.685177" y="102.90457" style="fill: #ff0000; stroke: #ff0000; stroke-linejoin: miter"/>
     <use xlink:href="#m514e7446b0" x="179.685177" y="102.370103" style="fill: #ff0000; stroke: #ff0000; stroke-linejoin: miter"/>
     <use xlink:href="#m514e7446b0" x="179.685177" y="121.847944" style="fill: #ff0000; stroke: #ff0000; stroke-linejoin: miter"/>
     <use xlink:href="#m514e7446b0" x="154.847006" y="137.738825" style="fill: #ff0000; stroke: #ff0000; stroke-linejoin: miter"/>
     <use xlink:href="#m514e7446b0" x="162.326741" y="123.576131" style="fill: #ff0000; stroke: #ff0000; stroke-linejoin: miter"/>
     <use xlink:href="#m514e7446b0" x="115.363636" y="166.701944" style="fill: #ff0000; stroke: #ff0000; stroke-linejoin: miter"/>
     <use xlink:href="#m514e7446b0" x="162.857107" y="269.360045" style="fill: #ff0000; stroke: #ff0000; stroke-linejoin: miter"/>
     <use xlink:href="#m514e7446b0" x="130.468378" y="197.614542" style="fill: #ff0000; stroke: #ff0000; stroke-linejoin: miter"/>
     <use xlink:href="#m514e7446b0" x="144.746491" y="250.297986" style="fill: #ff0000; stroke: #ff0000; stroke-linejoin: miter"/>
     <use xlink:href="#m514e7446b0" x="161.056987" y="268.51575" style="fill: #ff0000; stroke: #ff0000; stroke-linejoin: miter"/>
     <use xlink:href="#m514e7446b0" x="163.059419" y="313.331355" style="fill: #ff0000; stroke: #ff0000; stroke-linejoin: miter"/>
     <use xlink:href="#m514e7446b0" x="164.985489" y="270.664185" style="fill: #ff0000; stroke: #ff0000; stroke-linejoin: miter"/>
     <use xlink:href="#m514e7446b0" x="166.012636" y="271.222633" style="fill: #ff0000; stroke: #ff0000; stroke-linejoin: miter"/>
     <use xlink:href="#m514e7446b0" x="162.39498" y="293.933466" style="fill: #ff0000; stroke: #ff0000; stroke-linejoin: miter"/>
     <use xlink:href="#m514e7446b0" x="276.538612" y="367.718326" style="fill: #ff0000; stroke: #ff0000; stroke-linejoin: miter"/>
     <use xlink:href="#m514e7446b0" x="229.356188" y="362.081169" style="fill: #ff0000; stroke: #ff0000; stroke-linejoin: miter"/>
    </g>
   </g>
   <g id="patch_3">
    <path d="M 90 384.48 
L 90 51.84 
" style="fill: none; stroke: #000000; stroke-width: 0.8; stroke-linejoin: miter; stroke-linecap: square"/>
   </g>
   <g id="patch_4">
    <path d="M 648 384.48 
L 648 51.84 
" style="fill: none; stroke: #000000; stroke-width: 0.8; stroke-linejoin: miter; stroke-linecap: square"/>
   </g>
   <g id="patch_5">
    <path d="M 90 384.48 
L 648 384.48 
" style="fill: none; stroke: #000000; stroke-width: 0.8; stroke-linejoin: miter; stroke-linecap: square"/>
   </g>
   <g id="patch_6">
    <path d="M 90 51.84 
L 648 51.84 
" style="fill: none; stroke: #000000; stroke-width: 0.8; stroke-linejoin: miter; stroke-linecap: square"/>
   </g>
   <g id="legend_1">
    <g id="patch_7">
     <path d="M 327.823438 234.338125 
L 410.176563 234.338125 
Q 412.176563 234.338125 412.176563 232.338125 
L 412.176563 203.981875 
Q 412.176563 201.981875 410.176563 201.981875 
L 327.823438 201.981875 
Q 325.823438 201.981875 325.823438 203.981875 
L 325.823438 232.338125 
Q 325.823438 234.338125 327.823438 234.338125 
z
" style="fill: #ffffff; opacity: 0.8; stroke: #cccccc; stroke-linejoin: miter"/>
    </g>
    <g id="line2d_29">
     <path d="M 329.823438 210.080312 
L 339.823438 210.080312 
L 349.823438 210.080312 
" style="fill: none; stroke: #0000ff; stroke-linecap: square"/>
     <g>
      <use xlink:href="#mf8db90ba99" x="339.823438" y="210.080312" style="fill: #0000ff; stroke: #0000ff"/>
     </g>
    </g>
    <g id="text_16">
     <!-- Reference -->
     <g transform="translate(357.823438 213.580312) scale(0.1 -0.1)">
      <defs>
       <path id="DejaVuSans-52" d="M 2841 2188 
Q 3044 2119 3236 1894 
Q 3428 1669 3622 1275 
L 4263 0 
L 3584 0 
L 2988 1197 
Q 2756 1666 2539 1819 
Q 2322 1972 1947 1972 
L 1259 1972 
L 1259 0 
L 628 0 
L 628 4666 
L 2053 4666 
Q 2853 4666 3247 4331 
Q 3641 3997 3641 3322 
Q 3641 2881 3436 2590 
Q 3231 2300 2841 2188 
z
M 1259 4147 
L 1259 2491 
L 2053 2491 
Q 2509 2491 2742 2702 
Q 2975 2913 2975 3322 
Q 2975 3731 2742 3939 
Q 2509 4147 2053 4147 
L 1259 4147 
z
" transform="scale(0.015625)"/>
       <path id="DejaVuSans-65" d="M 3597 1894 
L 3597 1613 
L 953 1613 
Q 991 1019 1311 708 
Q 1631 397 2203 397 
Q 2534 397 2845 478 
Q 3156 559 3463 722 
L 3463 178 
Q 3153 47 2828 -22 
Q 2503 -91 2169 -91 
Q 1331 -91 842 396 
Q 353 884 353 1716 
Q 353 2575 817 3079 
Q 1281 3584 2069 3584 
Q 2775 3584 3186 3129 
Q 3597 2675 3597 1894 
z
M 3022 2063 
Q 3016 2534 2758 2815 
Q 2500 3097 2075 3097 
Q 1594 3097 1305 2825 
Q 1016 2553 972 2059 
L 3022 2063 
z
" transform="scale(0.015625)"/>
       <path id="DejaVuSans-66" d="M 2375 4863 
L 2375 4384 
L 1825 4384 
Q 1516 4384 1395 4259 
Q 1275 4134 1275 3809 
L 1275 3500 
L 2222 3500 
L 2222 3053 
L 1275 3053 
L 1275 0 
L 697 0 
L 697 3053 
L 147 3053 
L 147 3500 
L 697 3500 
L 697 3744 
Q 697 4328 969 4595 
Q 1241 4863 1831 4863 
L 2375 4863 
z
" transform="scale(0.015625)"/>
       <path id="DejaVuSans-72" d="M 2631 2963 
Q 2534 3019 2420 3045 
Q 2306 3072 2169 3072 
Q 1681 3072 1420 2755 
Q 1159 2438 1159 1844 
L 1159 0 
L 581 0 
L 581 3500 
L 1159 3500 
L 1159 2956 
Q 1341 3275 1631 3429 
Q 1922 3584 2338 3584 
Q 2397 3584 2469 3576 
Q 2541 3569 2628 3553 
L 2631 2963 
z
" transform="scale(0.015625)"/>
       <path id="DejaVuSans-6e" d="M 3513 2113 
L 3513 0 
L 2938 0 
L 2938 2094 
Q 2938 2591 2744 2837 
Q 2550 3084 2163 3084 
Q 1697 3084 1428 2787 
Q 1159 2491 1159 1978 
L 1159 0 
L 581 0 
L 581 3500 
L 1159 3500 
L 1159 2956 
Q 1366 3272 1645 3428 
Q 1925 3584 2291 3584 
Q 2894 3584 3203 3211 
Q 3513 2838 3513 2113 
z
" transform="scale(0.015625)"/>
       <path id="DejaVuSans-63" d="M 3122 3366 
L 3122 2828 
Q 2878 2963 2633 3030 
Q 2388 3097 2138 3097 
Q 1578 3097 1268 2742 
Q 959 2388 959 1747 
Q 959 1106 1268 751 
Q 1578 397 2138 397 
Q 2388 397 2633 464 
Q 2878 531 3122 666 
L 3122 134 
Q 2881 22 2623 -34 
Q 2366 -91 2075 -91 
Q 1284 -91 818 406 
Q 353 903 353 1747 
Q 353 2603 823 3093 
Q 1294 3584 2113 3584 
Q 2378 3584 2631 3529 
Q 2884 3475 3122 3366 
z
" transform="scale(0.015625)"/>
      </defs>
      <use xlink:href="#DejaVuSans-52"/>
      <use xlink:href="#DejaVuSans-65" transform="translate(64.982422 0)"/>
      <use xlink:href="#DejaVuSans-66" transform="translate(126.505859 0)"/>
      <use xlink:href="#DejaVuSans-65" transform="translate(161.710938 0)"/>
      <use xlink:href="#DejaVuSans-72" transform="translate(223.234375 0)"/>
      <use xlink:href="#DejaVuSans-65" transform="translate(262.097656 0)"/>
      <use xlink:href="#DejaVuSans-6e" transform="translate(323.621094 0)"/>
      <use xlink:href="#DejaVuSans-63" transform="translate(387 0)"/>
      <use xlink:href="#DejaVuSans-65" transform="translate(441.980469 0)"/>
     </g>
    </g>
    <g id="line2d_30">
     <path d="M 329.823438 224.758437 
L 339.823438 224.758437 
L 349.823438 224.758437 
" style="fill: none; stroke: #ff0000; stroke-linecap: square"/>
     <g>
      <use xlink:href="#m514e7446b0" x="339.823438" y="224.758437" style="fill: #ff0000; stroke: #ff0000; stroke-linejoin: miter"/>
     </g>
    </g>
    <g id="text_17">
     <!-- Ours -->
     <g transform="translate(357.823438 228.258437) scale(0.1 -0.1)">
      <defs>
       <path id="DejaVuSans-4f" d="M 2522 4238 
Q 1834 4238 1429 3725 
Q 1025 3213 1025 2328 
Q 1025 1447 1429 934 
Q 1834 422 2522 422 
Q 3209 422 3611 934 
Q 4013 1447 4013 2328 
Q 4013 3213 3611 3725 
Q 3209 4238 2522 4238 
z
M 2522 4750 
Q 3503 4750 4090 4092 
Q 4678 3434 4678 2328 
Q 4678 1225 4090 567 
Q 3503 -91 2522 -91 
Q 1538 -91 948 565 
Q 359 1222 359 2328 
Q 359 3434 948 4092 
Q 1538 4750 2522 4750 
z
" transform="scale(0.015625)"/>
       <path id="DejaVuSans-75" d="M 544 1381 
L 544 3500 
L 1119 3500 
L 1119 1403 
Q 1119 906 1312 657 
Q 1506 409 1894 409 
Q 2359 409 2629 706 
Q 2900 1003 2900 1516 
L 2900 3500 
L 3475 3500 
L 3475 0 
L 2900 0 
L 2900 538 
Q 2691 219 2414 64 
Q 2138 -91 1772 -91 
Q 1169 -91 856 284 
Q 544 659 544 1381 
z
M 1991 3584 
L 1991 3584 
z
" transform="scale(0.015625)"/>
       <path id="DejaVuSans-73" d="M 2834 3397 
L 2834 2853 
Q 2591 2978 2328 3040 
Q 2066 3103 1784 3103 
Q 1356 3103 1142 2972 
Q 928 2841 928 2578 
Q 928 2378 1081 2264 
Q 1234 2150 1697 2047 
L 1894 2003 
Q 2506 1872 2764 1633 
Q 3022 1394 3022 966 
Q 3022 478 2636 193 
Q 2250 -91 1575 -91 
Q 1294 -91 989 -36 
Q 684 19 347 128 
L 347 722 
Q 666 556 975 473 
Q 1284 391 1588 391 
Q 1994 391 2212 530 
Q 2431 669 2431 922 
Q 2431 1156 2273 1281 
Q 2116 1406 1581 1522 
L 1381 1569 
Q 847 1681 609 1914 
Q 372 2147 372 2553 
Q 372 3047 722 3315 
Q 1072 3584 1716 3584 
Q 2034 3584 2315 3537 
Q 2597 3491 2834 3397 
z
" transform="scale(0.015625)"/>
      </defs>
      <use xlink:href="#DejaVuSans-4f"/>
      <use xlink:href="#DejaVuSans-75" transform="translate(78.710938 0)"/>
      <use xlink:href="#DejaVuSans-72" transform="translate(142.089844 0)"/>
      <use xlink:href="#DejaVuSans-73" transform="translate(183.203125 0)"/>
     </g>
    </g>
   </g>
  </g>
 </g>
 <defs>
  <clipPath id="p36efd47b6c">
   <rect x="90" y="51.84" width="558" height="332.64"/>
  </clipPath>
 </defs>
</svg>
