<?xml version="1.0" encoding="utf-8" standalone="no"?>
<!DOCTYPE svg PUBLIC "-//W3C//DTD SVG 1.1//EN"
  "http://www.w3.org/Graphics/SVG/1.1/DTD/svg11.dtd">
<svg xmlns:xlink="http://www.w3.org/1999/xlink" width="720pt" height="432pt" viewBox="0 0 720 432" xmlns="http://www.w3.org/2000/svg" version="1.1">
 <metadata>
  <rdf:RDF xmlns:dc="http://purl.org/dc/elements/1.1/" xmlns:cc="http://creativecommons.org/ns#" xmlns:rdf="http://www.w3.org/1999/02/22-rdf-syntax-ns#">
   <cc:Work>
    <dc:type rdf:resource="http://purl.org/dc/dcmitype/StillImage"/>
    <dc:date>2025-11-14T17:12:03.126997</dc:date>
    <dc:format>image/svg+xml</dc:format>
    <dc:creator>
     <cc:Agent>
      <dc:title>Matplotlib v3.10.7, https://matplotlib.org/</dc:title>
     </cc:Agent>
    </dc:creator>
   </cc:Work>
  </rdf:RDF>
 </metadata>
 <defs>
  <style type="text/css">*{stroke-linejoin: round; stroke-linecap: butt}</style>
 </defs>
 <g id="figure_1">
  <g id="patch_1">
   <path d="M 0 432 
L 720 432 
L 720 0 
L 0 0 
z
" style="fill: #ffffff"/>
  </g>
  <g id="axes_1">
   <g id="patch_2">
    <path d="M 90 384.48 
L 648 384.48 
L 648 51.84 
L 90 51.84 
z
" style="fill: #ffffff"/>
   </g>
   <g id="matplotlib.axis_1">
    <g id="xtick_1">
     <g id="line2d_1">
      <path d="M 106.930293 384.48 
L 106.930293 51.84 
" clip-path="url(#p259ec07de4)" style="fill: none; stroke: #b0b0b0; stroke-width: 0.8; stroke-linecap: square"/>
     </g>
     <g id="line2d_2">
      <defs>
       <path id="m698ae66ac4" d="M 0 0 
L 0 3.5 
" style="stroke: #000000; stroke-width: 0.8"/>
      </defs>
      <g>
       <use xlink:href="#m698ae66ac4" x="106.930293" y="384.48" style="stroke: #000000; stroke-width: 0.8"/>
      </g>
     </g>
     <g id="text_1">
      <!-- −2 -->
      <g transform="translate(99.5592 399.078438) scale(0.1 -0.1)">
       <defs>
        <path id="DejaVuSans-2212" d="M 678 2272 
L 4684 2272 
L 4684 1741 
L 678 1741 
L 678 2272 
z
" transform="scale(0.015625)"/>
        <path id="DejaVuSans-32" d="M 1228 531 
L 3431 531 
L 3431 0 
L 469 0 
L 469 531 
Q 828 903 1448 1529 
Q 2069 2156 2228 2338 
Q 2531 2678 2651 2914 
Q 2772 3150 2772 3378 
Q 2772 3750 2511 3984 
Q 2250 4219 1831 4219 
Q 1534 4219 1204 4116 
Q 875 4013 500 3803 
L 500 4441 
Q 881 4594 1212 4672 
Q 1544 4750 1819 4750 
Q 2544 4750 2975 4387 
Q 3406 4025 3406 3419 
Q 3406 3131 3298 2873 
Q 3191 2616 2906 2266 
Q 2828 2175 2409 1742 
Q 1991 1309 1228 531 
z
" transform="scale(0.015625)"/>
       </defs>
       <use xlink:href="#DejaVuSans-2212"/>
       <use xlink:href="#DejaVuSans-32" transform="translate(83.789062 0)"/>
      </g>
     </g>
    </g>
    <g id="xtick_2">
     <g id="line2d_3">
      <path d="M 206.037831 384.48 
L 206.037831 51.84 
" clip-path="url(#p259ec07de4)" style="fill: none; stroke: #b0b0b0; stroke-width: 0.8; stroke-linecap: square"/>
     </g>
     <g id="line2d_4">
      <g>
       <use xlink:href="#m698ae66ac4" x="206.037831" y="384.48" style="stroke: #000000; stroke-width: 0.8"/>
      </g>
     </g>
     <g id="text_2">
      <!-- 0 -->
      <g transform="translate(202.856581 399.078438) scale(0.1 -0.1)">
       <defs>
        <path id="DejaVuSans-30" d="M 2034 4250 
Q 1547 4250 1301 3770 
Q 1056 3291 1056 2328 
Q 1056 1369 1301 889 
Q 1547 409 2034 409 
Q 2525 409 2770 889 
Q 3016 1369 3016 2328 
Q 3016 3291 2770 3770 
Q 2525 4250 2034 4250 
z
M 2034 4750 
Q 2819 4750 3233 4129 
Q 3647 3509 3647 2328 
Q 3647 1150 3233 529 
Q 2819 -91 2034 -91 
Q 1250 -91 836 529 
Q 422 1150 422 2328 
Q 422 3509 836 4129 
Q 1250 4750 2034 4750 
z
" transform="scale(0.015625)"/>
       </defs>
       <use xlink:href="#DejaVuSans-30"/>
      </g>
     </g>
    </g>
    <g id="xtick_3">
     <g id="line2d_5">
      <path d="M 305.145368 384.48 
L 305.145368 51.84 
" clip-path="url(#p259ec07de4)" style="fill: none; stroke: #b0b0b0; stroke-width: 0.8; stroke-linecap: square"/>
     </g>
     <g id="line2d_6">
      <g>
       <use xlink:href="#m698ae66ac4" x="305.145368" y="384.48" style="stroke: #000000; stroke-width: 0.8"/>
      </g>
     </g>
     <g id="text_3">
      <!-- 2 -->
      <g transform="translate(301.964118 399.078438) scale(0.1 -0.1)">
       <use xlink:href="#DejaVuSans-32"/>
      </g>
     </g>
    </g>
    <g id="xtick_4">
     <g id="line2d_7">
      <path d="M 404.252905 384.48 
L 404.252905 51.84 
" clip-path="url(#p259ec07de4)" style="fill: none; stroke: #b0b0b0; stroke-width: 0.8; stroke-linecap: square"/>
     </g>
     <g id="line2d_8">
      <g>
       <use xlink:href="#m698ae66ac4" x="404.252905" y="384.48" style="stroke: #000000; stroke-width: 0.8"/>
      </g>
     </g>
     <g id="text_4">
      <!-- 4 -->
      <g transform="translate(401.071655 399.078438) scale(0.1 -0.1)">
       <defs>
        <path id="DejaVuSans-34" d="M 2419 4116 
L 825 1625 
L 2419 1625 
L 2419 4116 
z
M 2253 4666 
L 3047 4666 
L 3047 1625 
L 3713 1625 
L 3713 1100 
L 3047 1100 
L 3047 0 
L 2419 0 
L 2419 1100 
L 313 1100 
L 313 1709 
L 2253 4666 
z
" transform="scale(0.015625)"/>
       </defs>
       <use xlink:href="#DejaVuSans-34"/>
      </g>
     </g>
    </g>
    <g id="xtick_5">
     <g id="line2d_9">
      <path d="M 503.360443 384.48 
L 503.360443 51.84 
" clip-path="url(#p259ec07de4)" style="fill: none; stroke: #b0b0b0; stroke-width: 0.8; stroke-linecap: square"/>
     </g>
     <g id="line2d_10">
      <g>
       <use xlink:href="#m698ae66ac4" x="503.360443" y="384.48" style="stroke: #000000; stroke-width: 0.8"/>
      </g>
     </g>
     <g id="text_5">
      <!-- 6 -->
      <g transform="translate(500.179193 399.078438) scale(0.1 -0.1)">
       <defs>
        <path id="DejaVuSans-36" d="M 2113 2584 
Q 1688 2584 1439 2293 
Q 1191 2003 1191 1497 
Q 1191 994 1439 701 
Q 1688 409 2113 409 
Q 2538 409 2786 701 
Q 3034 994 3034 1497 
Q 3034 2003 2786 2293 
Q 2538 2584 2113 2584 
z
M 3366 4563 
L 3366 3988 
Q 3128 4100 2886 4159 
Q 2644 4219 2406 4219 
Q 1781 4219 1451 3797 
Q 1122 3375 1075 2522 
Q 1259 2794 1537 2939 
Q 1816 3084 2150 3084 
Q 2853 3084 3261 2657 
Q 3669 2231 3669 1497 
Q 3669 778 3244 343 
Q 2819 -91 2113 -91 
Q 1303 -91 875 529 
Q 447 1150 447 2328 
Q 447 3434 972 4092 
Q 1497 4750 2381 4750 
Q 2619 4750 2861 4703 
Q 3103 4656 3366 4563 
z
" transform="scale(0.015625)"/>
       </defs>
       <use xlink:href="#DejaVuSans-36"/>
      </g>
     </g>
    </g>
    <g id="xtick_6">
     <g id="line2d_11">
      <path d="M 602.46798 384.48 
L 602.46798 51.84 
" clip-path="url(#p259ec07de4)" style="fill: none; stroke: #b0b0b0; stroke-width: 0.8; stroke-linecap: square"/>
     </g>
     <g id="line2d_12">
      <g>
       <use xlink:href="#m698ae66ac4" x="602.46798" y="384.48" style="stroke: #000000; stroke-width: 0.8"/>
      </g>
     </g>
     <g id="text_6">
      <!-- 8 -->
      <g transform="translate(599.28673 399.078438) scale(0.1 -0.1)">
       <defs>
        <path id="DejaVuSans-38" d="M 2034 2216 
Q 1584 2216 1326 1975 
Q 1069 1734 1069 1313 
Q 1069 891 1326 650 
Q 1584 409 2034 409 
Q 2484 409 2743 651 
Q 3003 894 3003 1313 
Q 3003 1734 2745 1975 
Q 2488 2216 2034 2216 
z
M 1403 2484 
Q 997 2584 770 2862 
Q 544 3141 544 3541 
Q 544 4100 942 4425 
Q 1341 4750 2034 4750 
Q 2731 4750 3128 4425 
Q 3525 4100 3525 3541 
Q 3525 3141 3298 2862 
Q 3072 2584 2669 2484 
Q 3125 2378 3379 2068 
Q 3634 1759 3634 1313 
Q 3634 634 3220 271 
Q 2806 -91 2034 -91 
Q 1263 -91 848 271 
Q 434 634 434 1313 
Q 434 1759 690 2068 
Q 947 2378 1403 2484 
z
M 1172 3481 
Q 1172 3119 1398 2916 
Q 1625 2713 2034 2713 
Q 2441 2713 2670 2916 
Q 2900 3119 2900 3481 
Q 2900 3844 2670 4047 
Q 2441 4250 2034 4250 
Q 1625 4250 1398 4047 
Q 1172 3844 1172 3481 
z
" transform="scale(0.015625)"/>
       </defs>
       <use xlink:href="#DejaVuSans-38"/>
      </g>
     </g>
    </g>
    <g id="text_7">
     <!-- E -->
     <g transform="translate(365.840625 412.756563) scale(0.1 -0.1)">
      <defs>
       <path id="DejaVuSans-45" d="M 628 4666 
L 3578 4666 
L 3578 4134 
L 1259 4134 
L 1259 2753 
L 3481 2753 
L 3481 2222 
L 1259 2222 
L 1259 531 
L 3634 531 
L 3634 0 
L 628 0 
L 628 4666 
z
" transform="scale(0.015625)"/>
      </defs>
      <use xlink:href="#DejaVuSans-45"/>
     </g>
    </g>
   </g>
   <g id="matplotlib.axis_2">
    <g id="ytick_1">
     <g id="line2d_13">
      <path d="M 90 348.686553 
L 648 348.686553 
" clip-path="url(#p259ec07de4)" style="fill: none; stroke: #b0b0b0; stroke-width: 0.8; stroke-linecap: square"/>
     </g>
     <g id="line2d_14">
      <defs>
       <path id="m4b99fb0e0c" d="M 0 0 
L -3.5 0 
" style="stroke: #000000; stroke-width: 0.8"/>
      </defs>
      <g>
       <use xlink:href="#m4b99fb0e0c" x="90" y="348.686553" style="stroke: #000000; stroke-width: 0.8"/>
      </g>
     </g>
     <g id="text_8">
      <!-- 0 -->
      <g transform="translate(76.6375 352.485771) scale(0.1 -0.1)">
       <use xlink:href="#DejaVuSans-30"/>
      </g>
     </g>
    </g>
    <g id="ytick_2">
     <g id="line2d_15">
      <path d="M 90 311.665981 
L 648 311.665981 
" clip-path="url(#p259ec07de4)" style="fill: none; stroke: #b0b0b0; stroke-width: 0.8; stroke-linecap: square"/>
     </g>
     <g id="line2d_16">
      <g>
       <use xlink:href="#m4b99fb0e0c" x="90" y="311.665981" style="stroke: #000000; stroke-width: 0.8"/>
      </g>
     </g>
     <g id="text_9">
      <!-- 2 -->
      <g transform="translate(76.6375 315.465199) scale(0.1 -0.1)">
       <use xlink:href="#DejaVuSans-32"/>
      </g>
     </g>
    </g>
    <g id="ytick_3">
     <g id="line2d_17">
      <path d="M 90 274.645409 
L 648 274.645409 
" clip-path="url(#p259ec07de4)" style="fill: none; stroke: #b0b0b0; stroke-width: 0.8; stroke-linecap: square"/>
     </g>
     <g id="line2d_18">
      <g>
       <use xlink:href="#m4b99fb0e0c" x="90" y="274.645409" style="stroke: #000000; stroke-width: 0.8"/>
      </g>
     </g>
     <g id="text_10">
      <!-- 4 -->
      <g transform="translate(76.6375 278.444627) scale(0.1 -0.1)">
       <use xlink:href="#DejaVuSans-34"/>
      </g>
     </g>
    </g>
    <g id="ytick_4">
     <g id="line2d_19">
      <path d="M 90 237.624837 
L 648 237.624837 
" clip-path="url(#p259ec07de4)" style="fill: none; stroke: #b0b0b0; stroke-width: 0.8; stroke-linecap: square"/>
     </g>
     <g id="line2d_20">
      <g>
       <use xlink:href="#m4b99fb0e0c" x="90" y="237.624837" style="stroke: #000000; stroke-width: 0.8"/>
      </g>
     </g>
     <g id="text_11">
      <!-- 6 -->
      <g transform="translate(76.6375 241.424055) scale(0.1 -0.1)">
       <use xlink:href="#DejaVuSans-36"/>
      </g>
     </g>
    </g>
    <g id="ytick_5">
     <g id="line2d_21">
      <path d="M 90 200.604265 
L 648 200.604265 
" clip-path="url(#p259ec07de4)" style="fill: none; stroke: #b0b0b0; stroke-width: 0.8; stroke-linecap: square"/>
     </g>
     <g id="line2d_22">
      <g>
       <use xlink:href="#m4b99fb0e0c" x="90" y="200.604265" style="stroke: #000000; stroke-width: 0.8"/>
      </g>
     </g>
     <g id="text_12">
      <!-- 8 -->
      <g transform="translate(76.6375 204.403484) scale(0.1 -0.1)">
       <use xlink:href="#DejaVuSans-38"/>
      </g>
     </g>
    </g>
    <g id="ytick_6">
     <g id="line2d_23">
      <path d="M 90 163.583693 
L 648 163.583693 
" clip-path="url(#p259ec07de4)" style="fill: none; stroke: #b0b0b0; stroke-width: 0.8; stroke-linecap: square"/>
     </g>
     <g id="line2d_24">
      <g>
       <use xlink:href="#m4b99fb0e0c" x="90" y="163.583693" style="stroke: #000000; stroke-width: 0.8"/>
      </g>
     </g>
     <g id="text_13">
      <!-- 10 -->
      <g transform="translate(70.275 167.382912) scale(0.1 -0.1)">
       <defs>
        <path id="DejaVuSans-31" d="M 794 531 
L 1825 531 
L 1825 4091 
L 703 3866 
L 703 4441 
L 1819 4666 
L 2450 4666 
L 2450 531 
L 3481 531 
L 3481 0 
L 794 0 
L 794 531 
z
" transform="scale(0.015625)"/>
       </defs>
       <use xlink:href="#DejaVuSans-31"/>
       <use xlink:href="#DejaVuSans-30" transform="translate(63.623047 0)"/>
      </g>
     </g>
    </g>
    <g id="ytick_7">
     <g id="line2d_25">
      <path d="M 90 126.563121 
L 648 126.563121 
" clip-path="url(#p259ec07de4)" style="fill: none; stroke: #b0b0b0; stroke-width: 0.8; stroke-linecap: square"/>
     </g>
     <g id="line2d_26">
      <g>
       <use xlink:href="#m4b99fb0e0c" x="90" y="126.563121" style="stroke: #000000; stroke-width: 0.8"/>
      </g>
     </g>
     <g id="text_14">
      <!-- 12 -->
      <g transform="translate(70.275 130.36234) scale(0.1 -0.1)">
       <use xlink:href="#DejaVuSans-31"/>
       <use xlink:href="#DejaVuSans-32" transform="translate(63.623047 0)"/>
      </g>
     </g>
    </g>
    <g id="ytick_8">
     <g id="line2d_27">
      <path d="M 90 89.542549 
L 648 89.542549 
" clip-path="url(#p259ec07de4)" style="fill: none; stroke: #b0b0b0; stroke-width: 0.8; stroke-linecap: square"/>
     </g>
     <g id="line2d_28">
      <g>
       <use xlink:href="#m4b99fb0e0c" x="90" y="89.542549" style="stroke: #000000; stroke-width: 0.8"/>
      </g>
     </g>
     <g id="text_15">
      <!-- 14 -->
      <g transform="translate(70.275 93.341768) scale(0.1 -0.1)">
       <use xlink:href="#DejaVuSans-31"/>
       <use xlink:href="#DejaVuSans-34" transform="translate(63.623047 0)"/>
      </g>
     </g>
    </g>
    <g id="ytick_9">
     <g id="line2d_29">
      <path d="M 90 52.521977 
L 648 52.521977 
" clip-path="url(#p259ec07de4)" style="fill: none; stroke: #b0b0b0; stroke-width: 0.8; stroke-linecap: square"/>
     </g>
     <g id="line2d_30">
      <g>
       <use xlink:href="#m4b99fb0e0c" x="90" y="52.521977" style="stroke: #000000; stroke-width: 0.8"/>
      </g>
     </g>
     <g id="text_16">
      <!-- 16 -->
      <g transform="translate(70.275 56.321196) scale(0.1 -0.1)">
       <use xlink:href="#DejaVuSans-31"/>
       <use xlink:href="#DejaVuSans-36" transform="translate(63.623047 0)"/>
      </g>
     </g>
    </g>
    <g id="text_17">
     <!-- N -->
     <g transform="translate(64.195312 221.900625) rotate(-90) scale(0.1 -0.1)">
      <defs>
       <path id="DejaVuSans-4e" d="M 628 4666 
L 1478 4666 
L 3547 763 
L 3547 4666 
L 4159 4666 
L 4159 0 
L 3309 0 
L 1241 3903 
L 1241 0 
L 628 0 
L 628 4666 
z
" transform="scale(0.015625)"/>
      </defs>
      <use xlink:href="#DejaVuSans-4e"/>
     </g>
    </g>
   </g>
   <g id="line2d_31">
    <path d="M 176.652446 363.124576 
L 275.759983 363.124576 
L 325.313752 363.124576 
L 374.86752 363.124576 
L 424.421289 363.124576 
L 473.975058 363.124576 
L 523.528826 363.124576 
L 573.082595 363.124576 
L 622.636364 363.124576 
L 622.636364 344.61429 
L 622.636364 326.104004 
L 622.636364 307.593718 
L 622.636364 289.083432 
L 622.636364 270.573146 
L 622.636364 252.06286 
L 622.636364 233.552574 
L 622.636364 215.042288 
L 622.636364 196.532002 
L 622.636364 178.021716 
L 622.636364 159.51143 
L 622.636364 141.001144 
L 622.636364 122.490858 
L 622.636364 103.980572 
L 622.636364 85.470286 
L 622.636364 66.96 
L 573.082595 66.96 
L 523.528826 66.96 
L 473.975058 66.96 
L 424.421289 66.96 
L 374.86752 66.96 
L 325.313752 66.96 
L 275.759983 66.96 
L 226.206215 66.96 
L 176.652446 66.96 
L 176.652446 85.470286 
L 176.652446 103.980572 
L 176.652446 122.490858 
L 176.652446 141.001144 
L 127.098677 159.51143 
L 127.098677 178.021716 
L 127.098677 196.532002 
L 127.098677 215.042288 
L 127.098677 233.552574 
L 127.098677 252.06286 
L 127.098677 270.573146 
L 127.098677 289.083432 
L 127.098677 307.593718 
L 127.098677 326.104004 
L 127.098677 344.61429 
L 176.652446 363.124576 
" clip-path="url(#p259ec07de4)" style="fill: none; stroke: #0000ff; stroke-linecap: square"/>
    <defs>
     <path id="mc7fb9f6a9a" d="M 0 2 
C 0.530406 2 1.03916 1.789267 1.414214 1.414214 
C 1.789267 1.03916 2 0.530406 2 0 
C 2 -0.530406 1.789267 -1.03916 1.414214 -1.414214 
C 1.03916 -1.789267 0.530406 -2 0 -2 
C -0.530406 -2 -1.03916 -1.789267 -1.414214 -1.414214 
C -1.789267 -1.03916 -2 -0.530406 -2 0 
C -2 0.530406 -1.789267 1.03916 -1.414214 1.414214 
C -1.03916 1.789267 -0.530406 2 0 2 
z
" style="stroke: #0000ff"/>
    </defs>
    <g clip-path="url(#p259ec07de4)">
     <use xlink:href="#mc7fb9f6a9a" x="176.652446" y="363.124576" style="fill: #0000ff; stroke: #0000ff"/>
     <use xlink:href="#mc7fb9f6a9a" x="275.759983" y="363.124576" style="fill: #0000ff; stroke: #0000ff"/>
     <use xlink:href="#mc7fb9f6a9a" x="325.313752" y="363.124576" style="fill: #0000ff; stroke: #0000ff"/>
     <use xlink:href="#mc7fb9f6a9a" x="374.86752" y="363.124576" style="fill: #0000ff; stroke: #0000ff"/>
     <use xlink:href="#mc7fb9f6a9a" x="424.421289" y="363.124576" style="fill: #0000ff; stroke: #0000ff"/>
     <use xlink:href="#mc7fb9f6a9a" x="473.975058" y="363.124576" style="fill: #0000ff; stroke: #0000ff"/>
     <use xlink:href="#mc7fb9f6a9a" x="523.528826" y="363.124576" style="fill: #0000ff; stroke: #0000ff"/>
     <use xlink:href="#mc7fb9f6a9a" x="573.082595" y="363.124576" style="fill: #0000ff; stroke: #0000ff"/>
     <use xlink:href="#mc7fb9f6a9a" x="622.636364" y="363.124576" style="fill: #0000ff; stroke: #0000ff"/>
     <use xlink:href="#mc7fb9f6a9a" x="622.636364" y="344.61429" style="fill: #0000ff; stroke: #0000ff"/>
     <use xlink:href="#mc7fb9f6a9a" x="622.636364" y="326.104004" style="fill: #0000ff; stroke: #0000ff"/>
     <use xlink:href="#mc7fb9f6a9a" x="622.636364" y="307.593718" style="fill: #0000ff; stroke: #0000ff"/>
     <use xlink:href="#mc7fb9f6a9a" x="622.636364" y="289.083432" style="fill: #0000ff; stroke: #0000ff"/>
     <use xlink:href="#mc7fb9f6a9a" x="622.636364" y="270.573146" style="fill: #0000ff; stroke: #0000ff"/>
     <use xlink:href="#mc7fb9f6a9a" x="622.636364" y="252.06286" style="fill: #0000ff; stroke: #0000ff"/>
     <use xlink:href="#mc7fb9f6a9a" x="622.636364" y="233.552574" style="fill: #0000ff; stroke: #0000ff"/>
     <use xlink:href="#mc7fb9f6a9a" x="622.636364" y="215.042288" style="fill: #0000ff; stroke: #0000ff"/>
     <use xlink:href="#mc7fb9f6a9a" x="622.636364" y="196.532002" style="fill: #0000ff; stroke: #0000ff"/>
     <use xlink:href="#mc7fb9f6a9a" x="622.636364" y="178.021716" style="fill: #0000ff; stroke: #0000ff"/>
     <use xlink:href="#mc7fb9f6a9a" x="622.636364" y="159.51143" style="fill: #0000ff; stroke: #0000ff"/>
     <use xlink:href="#mc7fb9f6a9a" x="622.636364" y="141.001144" style="fill: #0000ff; stroke: #0000ff"/>
     <use xlink:href="#mc7fb9f6a9a" x="622.636364" y="122.490858" style="fill: #0000ff; stroke: #0000ff"/>
     <use xlink:href="#mc7fb9f6a9a" x="622.636364" y="103.980572" style="fill: #0000ff; stroke: #0000ff"/>
     <use xlink:href="#mc7fb9f6a9a" x="622.636364" y="85.470286" style="fill: #0000ff; stroke: #0000ff"/>
     <use xlink:href="#mc7fb9f6a9a" x="622.636364" y="66.96" style="fill: #0000ff; stroke: #0000ff"/>
     <use xlink:href="#mc7fb9f6a9a" x="573.082595" y="66.96" style="fill: #0000ff; stroke: #0000ff"/>
     <use xlink:href="#mc7fb9f6a9a" x="523.528826" y="66.96" style="fill: #0000ff; stroke: #0000ff"/>
     <use xlink:href="#mc7fb9f6a9a" x="473.975058" y="66.96" style="fill: #0000ff; stroke: #0000ff"/>
     <use xlink:href="#mc7fb9f6a9a" x="424.421289" y="66.96" style="fill: #0000ff; stroke: #0000ff"/>
     <use xlink:href="#mc7fb9f6a9a" x="374.86752" y="66.96" style="fill: #0000ff; stroke: #0000ff"/>
     <use xlink:href="#mc7fb9f6a9a" x="325.313752" y="66.96" style="fill: #0000ff; stroke: #0000ff"/>
     <use xlink:href="#mc7fb9f6a9a" x="275.759983" y="66.96" style="fill: #0000ff; stroke: #0000ff"/>
     <use xlink:href="#mc7fb9f6a9a" x="226.206215" y="66.96" style="fill: #0000ff; stroke: #0000ff"/>
     <use xlink:href="#mc7fb9f6a9a" x="176.652446" y="66.96" style="fill: #0000ff; stroke: #0000ff"/>
     <use xlink:href="#mc7fb9f6a9a" x="176.652446" y="85.470286" style="fill: #0000ff; stroke: #0000ff"/>
     <use xlink:href="#mc7fb9f6a9a" x="176.652446" y="103.980572" style="fill: #0000ff; stroke: #0000ff"/>
     <use xlink:href="#mc7fb9f6a9a" x="176.652446" y="122.490858" style="fill: #0000ff; stroke: #0000ff"/>
     <use xlink:href="#mc7fb9f6a9a" x="176.652446" y="141.001144" style="fill: #0000ff; stroke: #0000ff"/>
     <use xlink:href="#mc7fb9f6a9a" x="127.098677" y="159.51143" style="fill: #0000ff; stroke: #0000ff"/>
     <use xlink:href="#mc7fb9f6a9a" x="127.098677" y="178.021716" style="fill: #0000ff; stroke: #0000ff"/>
     <use xlink:href="#mc7fb9f6a9a" x="127.098677" y="196.532002" style="fill: #0000ff; stroke: #0000ff"/>
     <use xlink:href="#mc7fb9f6a9a" x="127.098677" y="215.042288" style="fill: #0000ff; stroke: #0000ff"/>
     <use xlink:href="#mc7fb9f6a9a" x="127.098677" y="233.552574" style="fill: #0000ff; stroke: #0000ff"/>
     <use xlink:href="#mc7fb9f6a9a" x="127.098677" y="252.06286" style="fill: #0000ff; stroke: #0000ff"/>
     <use xlink:href="#mc7fb9f6a9a" x="127.098677" y="270.573146" style="fill: #0000ff; stroke: #0000ff"/>
     <use xlink:href="#mc7fb9f6a9a" x="127.098677" y="289.083432" style="fill: #0000ff; stroke: #0000ff"/>
     <use xlink:href="#mc7fb9f6a9a" x="127.098677" y="307.593718" style="fill: #0000ff; stroke: #0000ff"/>
     <use xlink:href="#mc7fb9f6a9a" x="127.098677" y="326.104004" style="fill: #0000ff; stroke: #0000ff"/>
     <use xlink:href="#mc7fb9f6a9a" x="127.098677" y="344.61429" style="fill: #0000ff; stroke: #0000ff"/>
     <use xlink:href="#mc7fb9f6a9a" x="176.652446" y="363.124576" style="fill: #0000ff; stroke: #0000ff"/>
    </g>
   </g>
   <g id="line2d_32">
    <path d="M 163.871421 358.055627 
L 363.766778 367.241461 
L 392.909163 363.124576 
L 368.782305 369.36 
L 432.051473 363.124576 
L 467.042673 361.564267 
L 447.797557 358.431155 
L 609.232772 349.510627 
L 490.790103 368.400208 
L 548.887901 344.326431 
L 596.930425 342.67192 
L 611.805671 328.670846 
L 546.104875 299.507279 
L 622.636364 286.956467 
L 606.486469 270.273765 
L 587.554423 295.357805 
L 605.330051 246.530285 
L 599.860602 178.673253 
L 600.030586 169.275607 
L 612.385287 168.03692 
L 622.636364 148.944457 
L 599.365589 82.828553 
L 598.465139 82.127735 
L 597.758261 76.412744 
L 596.749718 75.415189 
L 598.472223 102.800484 
L 570.682995 75.071686 
L 403.046486 66.96 
L 448.232111 66.96 
L 298.081966 66.96 
L 399.115269 66.96 
L 242.645461 66.96 
L 213.757911 80.262191 
L 148.52436 71.653599 
L 154.932084 103.239617 
L 156.68648 102.794516 
L 165.137786 126.44748 
L 155.039894 135.884682 
L 162.990014 115.415059 
L 115.363636 165.331938 
L 152.31325 257.59432 
L 116.316683 185.657925 
L 138.58098 243.719466 
L 150.898004 261.121198 
L 163.685982 304.368315 
L 154.854694 278.674942 
L 155.498495 279.303973 
L 163.21914 293.445179 
L 241.768421 363.457428 
L 238.681758 367.655672 
" clip-path="url(#p259ec07de4)" style="fill: none; stroke: #ff0000; stroke-linecap: square"/>
    <defs>
     <path id="m1cb61cf446" d="M 0 -2 
L -2 2 
L 2 2 
z
" style="stroke: #ff0000; stroke-linejoin: miter"/>
    </defs>
    <g clip-path="url(#p259ec07de4)">
     <use xlink:href="#m1cb61cf446" x="163.871421" y="358.055627" style="fill: #ff0000; stroke: #ff0000; stroke-linejoin: miter"/>
     <use xlink:href="#m1cb61cf446" x="363.766778" y="367.241461" style="fill: #ff0000; stroke: #ff0000; stroke-linejoin: miter"/>
     <use xlink:href="#m1cb61cf446" x="392.909163" y="363.124576" style="fill: #ff0000; stroke: #ff0000; stroke-linejoin: miter"/>
     <use xlink:href="#m1cb61cf446" x="368.782305" y="369.36" style="fill: #ff0000; stroke: #ff0000; stroke-linejoin: miter"/>
     <use xlink:href="#m1cb61cf446" x="432.051473" y="363.124576" style="fill: #ff0000; stroke: #ff0000; stroke-linejoin: miter"/>
     <use xlink:href="#m1cb61cf446" x="467.042673" y="361.564267" style="fill: #ff0000; stroke: #ff0000; stroke-linejoin: miter"/>
     <use xlink:href="#m1cb61cf446" x="447.797557" y="358.431155" style="fill: #ff0000; stroke: #ff0000; stroke-linejoin: miter"/>
     <use xlink:href="#m1cb61cf446" x="609.232772" y="349.510627" style="fill: #ff0000; stroke: #ff0000; stroke-linejoin: miter"/>
     <use xlink:href="#m1cb61cf446" x="490.790103" y="368.400208" style="fill: #ff0000; stroke: #ff0000; stroke-linejoin: miter"/>
     <use xlink:href="#m1cb61cf446" x="548.887901" y="344.326431" style="fill: #ff0000; stroke: #ff0000; stroke-linejoin: miter"/>
     <use xlink:href="#m1cb61cf446" x="596.930425" y="342.67192" style="fill: #ff0000; stroke: #ff0000; stroke-linejoin: miter"/>
     <use xlink:href="#m1cb61cf446" x="611.805671" y="328.670846" style="fill: #ff0000; stroke: #ff0000; stroke-linejoin: miter"/>
     <use xlink:href="#m1cb61cf446" x="546.104875" y="299.507279" style="fill: #ff0000; stroke: #ff0000; stroke-linejoin: miter"/>
     <use xlink:href="#m1cb61cf446" x="622.636364" y="286.956467" style="fill: #ff0000; stroke: #ff0000; stroke-linejoin: miter"/>
     <use xlink:href="#m1cb61cf446" x="606.486469" y="270.273765" style="fill: #ff0000; stroke: #ff0000; stroke-linejoin: miter"/>
     <use xlink:href="#m1cb61cf446" x="587.554423" y="295.357805" style="fill: #ff0000; stroke: #ff0000; stroke-linejoin: miter"/>
     <use xlink:href="#m1cb61cf446" x="605.330051" y="246.530285" style="fill: #ff0000; stroke: #ff0000; stroke-linejoin: miter"/>
     <use xlink:href="#m1cb61cf446" x="599.860602" y="178.673253" style="fill: #ff0000; stroke: #ff0000; stroke-linejoin: miter"/>
     <use xlink:href="#m1cb61cf446" x="600.030586" y="169.275607" style="fill: #ff0000; stroke: #ff0000; stroke-linejoin: miter"/>
     <use xlink:href="#m1cb61cf446" x="612.385287" y="168.03692" style="fill: #ff0000; stroke: #ff0000; stroke-linejoin: miter"/>
     <use xlink:href="#m1cb61cf446" x="622.636364" y="148.944457" style="fill: #ff0000; stroke: #ff0000; stroke-linejoin: miter"/>
     <use xlink:href="#m1cb61cf446" x="599.365589" y="82.828553" style="fill: #ff0000; stroke: #ff0000; stroke-linejoin: miter"/>
     <use xlink:href="#m1cb61cf446" x="598.465139" y="82.127735" style="fill: #ff0000; stroke: #ff0000; stroke-linejoin: miter"/>
     <use xlink:href="#m1cb61cf446" x="597.758261" y="76.412744" style="fill: #ff0000; stroke: #ff0000; stroke-linejoin: miter"/>
     <use xlink:href="#m1cb61cf446" x="596.749718" y="75.415189" style="fill: #ff0000; stroke: #ff0000; stroke-linejoin: miter"/>
     <use xlink:href="#m1cb61cf446" x="598.472223" y="102.800484" style="fill: #ff0000; stroke: #ff0000; stroke-linejoin: miter"/>
     <use xlink:href="#m1cb61cf446" x="570.682995" y="75.071686" style="fill: #ff0000; stroke: #ff0000; stroke-linejoin: miter"/>
     <use xlink:href="#m1cb61cf446" x="403.046486" y="66.96" style="fill: #ff0000; stroke: #ff0000; stroke-linejoin: miter"/>
     <use xlink:href="#m1cb61cf446" x="448.232111" y="66.96" style="fill: #ff0000; stroke: #ff0000; stroke-linejoin: miter"/>
     <use xlink:href="#m1cb61cf446" x="298.081966" y="66.96" style="fill: #ff0000; stroke: #ff0000; stroke-linejoin: miter"/>
     <use xlink:href="#m1cb61cf446" x="399.115269" y="66.96" style="fill: #ff0000; stroke: #ff0000; stroke-linejoin: miter"/>
     <use xlink:href="#m1cb61cf446" x="242.645461" y="66.96" style="fill: #ff0000; stroke: #ff0000; stroke-linejoin: miter"/>
     <use xlink:href="#m1cb61cf446" x="213.757911" y="80.262191" style="fill: #ff0000; stroke: #ff0000; stroke-linejoin: miter"/>
     <use xlink:href="#m1cb61cf446" x="148.52436" y="71.653599" style="fill: #ff0000; stroke: #ff0000; stroke-linejoin: miter"/>
     <use xlink:href="#m1cb61cf446" x="154.932084" y="103.239617" style="fill: #ff0000; stroke: #ff0000; stroke-linejoin: miter"/>
     <use xlink:href="#m1cb61cf446" x="156.68648" y="102.794516" style="fill: #ff0000; stroke: #ff0000; stroke-linejoin: miter"/>
     <use xlink:href="#m1cb61cf446" x="165.137786" y="126.44748" style="fill: #ff0000; stroke: #ff0000; stroke-linejoin: miter"/>
     <use xlink:href="#m1cb61cf446" x="155.039894" y="135.884682" style="fill: #ff0000; stroke: #ff0000; stroke-linejoin: miter"/>
     <use xlink:href="#m1cb61cf446" x="162.990014" y="115.415059" style="fill: #ff0000; stroke: #ff0000; stroke-linejoin: miter"/>
     <use xlink:href="#m1cb61cf446" x="115.363636" y="165.331938" style="fill: #ff0000; stroke: #ff0000; stroke-linejoin: miter"/>
     <use xlink:href="#m1cb61cf446" x="152.31325" y="257.59432" style="fill: #ff0000; stroke: #ff0000; stroke-linejoin: miter"/>
     <use xlink:href="#m1cb61cf446" x="116.316683" y="185.657925" style="fill: #ff0000; stroke: #ff0000; stroke-linejoin: miter"/>
     <use xlink:href="#m1cb61cf446" x="138.58098" y="243.719466" style="fill: #ff0000; stroke: #ff0000; stroke-linejoin: miter"/>
     <use xlink:href="#m1cb61cf446" x="150.898004" y="261.121198" style="fill: #ff0000; stroke: #ff0000; stroke-linejoin: miter"/>
     <use xlink:href="#m1cb61cf446" x="163.685982" y="304.368315" style="fill: #ff0000; stroke: #ff0000; stroke-linejoin: miter"/>
     <use xlink:href="#m1cb61cf446" x="154.854694" y="278.674942" style="fill: #ff0000; stroke: #ff0000; stroke-linejoin: miter"/>
     <use xlink:href="#m1cb61cf446" x="155.498495" y="279.303973" style="fill: #ff0000; stroke: #ff0000; stroke-linejoin: miter"/>
     <use xlink:href="#m1cb61cf446" x="163.21914" y="293.445179" style="fill: #ff0000; stroke: #ff0000; stroke-linejoin: miter"/>
     <use xlink:href="#m1cb61cf446" x="241.768421" y="363.457428" style="fill: #ff0000; stroke: #ff0000; stroke-linejoin: miter"/>
     <use xlink:href="#m1cb61cf446" x="238.681758" y="367.655672" style="fill: #ff0000; stroke: #ff0000; stroke-linejoin: miter"/>
    </g>
   </g>
   <g id="patch_3">
    <path d="M 90 384.48 
L 90 51.84 
" style="fill: none; stroke: #000000; stroke-width: 0.8; stroke-linejoin: miter; stroke-linecap: square"/>
   </g>
   <g id="patch_4">
    <path d="M 648 384.48 
L 648 51.84 
" style="fill: none; stroke: #000000; stroke-width: 0.8; stroke-linejoin: miter; stroke-linecap: square"/>
   </g>
   <g id="patch_5">
    <path d="M 90 384.48 
L 648 384.48 
" style="fill: none; stroke: #000000; stroke-width: 0.8; stroke-linejoin: miter; stroke-linecap: square"/>
   </g>
   <g id="patch_6">
    <path d="M 90 51.84 
L 648 51.84 
" style="fill: none; stroke: #000000; stroke-width: 0.8; stroke-linejoin: miter; stroke-linecap: square"/>
   </g>
   <g id="legend_1">
    <g id="patch_7">
     <path d="M 327.823438 234.338125 
L 410.176563 234.338125 
Q 412.176563 234.338125 412.176563 232.338125 
L 412.176563 203.981875 
Q 412.176563 201.981875 410.176563 201.981875 
L 327.823438 201.981875 
Q 325.823438 201.981875 325.823438 203.981875 
L 325.823438 232.338125 
Q 325.823438 234.338125 327.823438 234.338125 
z
" style="fill: #ffffff; opacity: 0.8; stroke: #cccccc; stroke-linejoin: miter"/>
    </g>
    <g id="line2d_33">
     <path d="M 329.823438 210.080312 
L 339.823438 210.080312 
L 349.823438 210.080312 
" style="fill: none; stroke: #0000ff; stroke-linecap: square"/>
     <g>
      <use xlink:href="#mc7fb9f6a9a" x="339.823438" y="210.080312" style="fill: #0000ff; stroke: #0000ff"/>
     </g>
    </g>
    <g id="text_18">
     <!-- Reference -->
     <g transform="translate(357.823438 213.580312) scale(0.1 -0.1)">
      <defs>
       <path id="DejaVuSans-52" d="M 2841 2188 
Q 3044 2119 3236 1894 
Q 3428 1669 3622 1275 
L 4263 0 
L 3584 0 
L 2988 1197 
Q 2756 1666 2539 1819 
Q 2322 1972 1947 1972 
L 1259 1972 
L 1259 0 
L 628 0 
L 628 4666 
L 2053 4666 
Q 2853 4666 3247 4331 
Q 3641 3997 3641 3322 
Q 3641 2881 3436 2590 
Q 3231 2300 2841 2188 
z
M 1259 4147 
L 1259 2491 
L 2053 2491 
Q 2509 2491 2742 2702 
Q 2975 2913 2975 3322 
Q 2975 3731 2742 3939 
Q 2509 4147 2053 4147 
L 1259 4147 
z
" transform="scale(0.015625)"/>
       <path id="DejaVuSans-65" d="M 3597 1894 
L 3597 1613 
L 953 1613 
Q 991 1019 1311 708 
Q 1631 397 2203 397 
Q 2534 397 2845 478 
Q 3156 559 3463 722 
L 3463 178 
Q 3153 47 2828 -22 
Q 2503 -91 2169 -91 
Q 1331 -91 842 396 
Q 353 884 353 1716 
Q 353 2575 817 3079 
Q 1281 3584 2069 3584 
Q 2775 3584 3186 3129 
Q 3597 2675 3597 1894 
z
M 3022 2063 
Q 3016 2534 2758 2815 
Q 2500 3097 2075 3097 
Q 1594 3097 1305 2825 
Q 1016 2553 972 2059 
L 3022 2063 
z
" transform="scale(0.015625)"/>
       <path id="DejaVuSans-66" d="M 2375 4863 
L 2375 4384 
L 1825 4384 
Q 1516 4384 1395 4259 
Q 1275 4134 1275 3809 
L 1275 3500 
L 2222 3500 
L 2222 3053 
L 1275 3053 
L 1275 0 
L 697 0 
L 697 3053 
L 147 3053 
L 147 3500 
L 697 3500 
L 697 3744 
Q 697 4328 969 4595 
Q 1241 4863 1831 4863 
L 2375 4863 
z
" transform="scale(0.015625)"/>
       <path id="DejaVuSans-72" d="M 2631 2963 
Q 2534 3019 2420 3045 
Q 2306 3072 2169 3072 
Q 1681 3072 1420 2755 
Q 1159 2438 1159 1844 
L 1159 0 
L 581 0 
L 581 3500 
L 1159 3500 
L 1159 2956 
Q 1341 3275 1631 3429 
Q 1922 3584 2338 3584 
Q 2397 3584 2469 3576 
Q 2541 3569 2628 3553 
L 2631 2963 
z
" transform="scale(0.015625)"/>
       <path id="DejaVuSans-6e" d="M 3513 2113 
L 3513 0 
L 2938 0 
L 2938 2094 
Q 2938 2591 2744 2837 
Q 2550 3084 2163 3084 
Q 1697 3084 1428 2787 
Q 1159 2491 1159 1978 
L 1159 0 
L 581 0 
L 581 3500 
L 1159 3500 
L 1159 2956 
Q 1366 3272 1645 3428 
Q 1925 3584 2291 3584 
Q 2894 3584 3203 3211 
Q 3513 2838 3513 2113 
z
" transform="scale(0.015625)"/>
       <path id="DejaVuSans-63" d="M 3122 3366 
L 3122 2828 
Q 2878 2963 2633 3030 
Q 2388 3097 2138 3097 
Q 1578 3097 1268 2742 
Q 959 2388 959 1747 
Q 959 1106 1268 751 
Q 1578 397 2138 397 
Q 2388 397 2633 464 
Q 2878 531 3122 666 
L 3122 134 
Q 2881 22 2623 -34 
Q 2366 -91 2075 -91 
Q 1284 -91 818 406 
Q 353 903 353 1747 
Q 353 2603 823 3093 
Q 1294 3584 2113 3584 
Q 2378 3584 2631 3529 
Q 2884 3475 3122 3366 
z
" transform="scale(0.015625)"/>
      </defs>
      <use xlink:href="#DejaVuSans-52"/>
      <use xlink:href="#DejaVuSans-65" transform="translate(64.982422 0)"/>
      <use xlink:href="#DejaVuSans-66" transform="translate(126.505859 0)"/>
      <use xlink:href="#DejaVuSans-65" transform="translate(161.710938 0)"/>
      <use xlink:href="#DejaVuSans-72" transform="translate(223.234375 0)"/>
      <use xlink:href="#DejaVuSans-65" transform="translate(262.097656 0)"/>
      <use xlink:href="#DejaVuSans-6e" transform="translate(323.621094 0)"/>
      <use xlink:href="#DejaVuSans-63" transform="translate(387 0)"/>
      <use xlink:href="#DejaVuSans-65" transform="translate(441.980469 0)"/>
     </g>
    </g>
    <g id="line2d_34">
     <path d="M 329.823438 224.758437 
L 339.823438 224.758437 
L 349.823438 224.758437 
" style="fill: none; stroke: #ff0000; stroke-linecap: square"/>
     <g>
      <use xlink:href="#m1cb61cf446" x="339.823438" y="224.758437" style="fill: #ff0000; stroke: #ff0000; stroke-linejoin: miter"/>
     </g>
    </g>
    <g id="text_19">
     <!-- Ours -->
     <g transform="translate(357.823438 228.258437) scale(0.1 -0.1)">
      <defs>
       <path id="DejaVuSans-4f" d="M 2522 4238 
Q 1834 4238 1429 3725 
Q 1025 3213 1025 2328 
Q 1025 1447 1429 934 
Q 1834 422 2522 422 
Q 3209 422 3611 934 
Q 4013 1447 4013 2328 
Q 4013 3213 3611 3725 
Q 3209 4238 2522 4238 
z
M 2522 4750 
Q 3503 4750 4090 4092 
Q 4678 3434 4678 2328 
Q 4678 1225 4090 567 
Q 3503 -91 2522 -91 
Q 1538 -91 948 565 
Q 359 1222 359 2328 
Q 359 3434 948 4092 
Q 1538 4750 2522 4750 
z
" transform="scale(0.015625)"/>
       <path id="DejaVuSans-75" d="M 544 1381 
L 544 3500 
L 1119 3500 
L 1119 1403 
Q 1119 906 1312 657 
Q 1506 409 1894 409 
Q 2359 409 2629 706 
Q 2900 1003 2900 1516 
L 2900 3500 
L 3475 3500 
L 3475 0 
L 2900 0 
L 2900 538 
Q 2691 219 2414 64 
Q 2138 -91 1772 -91 
Q 1169 -91 856 284 
Q 544 659 544 1381 
z
M 1991 3584 
L 1991 3584 
z
" transform="scale(0.015625)"/>
       <path id="DejaVuSans-73" d="M 2834 3397 
L 2834 2853 
Q 2591 2978 2328 3040 
Q 2066 3103 1784 3103 
Q 1356 3103 1142 2972 
Q 928 2841 928 2578 
Q 928 2378 1081 2264 
Q 1234 2150 1697 2047 
L 1894 2003 
Q 2506 1872 2764 1633 
Q 3022 1394 3022 966 
Q 3022 478 2636 193 
Q 2250 -91 1575 -91 
Q 1294 -91 989 -36 
Q 684 19 347 128 
L 347 722 
Q 666 556 975 473 
Q 1284 391 1588 391 
Q 1994 391 2212 530 
Q 2431 669 2431 922 
Q 2431 1156 2273 1281 
Q 2116 1406 1581 1522 
L 1381 1569 
Q 847 1681 609 1914 
Q 372 2147 372 2553 
Q 372 3047 722 3315 
Q 1072 3584 1716 3584 
Q 2034 3584 2315 3537 
Q 2597 3491 2834 3397 
z
" transform="scale(0.015625)"/>
      </defs>
      <use xlink:href="#DejaVuSans-4f"/>
      <use xlink:href="#DejaVuSans-75" transform="translate(78.710938 0)"/>
      <use xlink:href="#DejaVuSans-72" transform="translate(142.089844 0)"/>
      <use xlink:href="#DejaVuSans-73" transform="translate(183.203125 0)"/>
     </g>
    </g>
   </g>
  </g>
 </g>
 <defs>
  <clipPath id="p259ec07de4">
   <rect x="90" y="51.84" width="558" height="332.64"/>
  </clipPath>
 </defs>
</svg>
