<?xml version="1.0" encoding="utf-8" standalone="no"?>
<!DOCTYPE svg PUBLIC "-//W3C//DTD SVG 1.1//EN"
  "http://www.w3.org/Graphics/SVG/1.1/DTD/svg11.dtd">
<svg xmlns:xlink="http://www.w3.org/1999/xlink" width="720pt" height="431.424pt" viewBox="0 0 720 431.424" xmlns="http://www.w3.org/2000/svg" version="1.1">
 <metadata>
  <rdf:RDF xmlns:dc="http://purl.org/dc/elements/1.1/" xmlns:cc="http://creativecommons.org/ns#" xmlns:rdf="http://www.w3.org/1999/02/22-rdf-syntax-ns#">
   <cc:Work>
    <dc:type rdf:resource="http://purl.org/dc/dcmitype/StillImage"/>
    <dc:date>2025-11-14T17:09:01.094567</dc:date>
    <dc:format>image/svg+xml</dc:format>
    <dc:creator>
     <cc:Agent>
      <dc:title>Matplotlib v3.10.7, https://matplotlib.org/</dc:title>
     </cc:Agent>
    </dc:creator>
   </cc:Work>
  </rdf:RDF>
 </metadata>
 <defs>
  <style type="text/css">*{stroke-linejoin: round; stroke-linecap: butt}</style>
 </defs>
 <g id="figure_1">
  <g id="patch_1">
   <path d="M 0 431.424 
L 720 431.424 
L 720 0 
L 0 0 
z
" style="fill: #ffffff"/>
  </g>
  <g id="axes_1">
   <g id="patch_2">
    <path d="M 90 383.96736 
L 648 383.96736 
L 648 51.77088 
L 90 51.77088 
z
" style="fill: #ffffff"/>
   </g>
   <g id="matplotlib.axis_1">
    <g id="xtick_1">
     <g id="line2d_1">
      <path d="M 94.717636 383.96736 
L 94.717636 51.77088 
" clip-path="url(#pa7cd6a8d07)" style="fill: none; stroke: #b0b0b0; stroke-width: 0.8; stroke-linecap: square"/>
     </g>
     <g id="line2d_2">
      <defs>
       <path id="m31827afb3a" d="M 0 0 
L 0 3.5 
" style="stroke: #000000; stroke-width: 0.8"/>
      </defs>
      <g>
       <use xlink:href="#m31827afb3a" x="94.717636" y="383.96736" style="stroke: #000000; stroke-width: 0.8"/>
      </g>
     </g>
     <g id="text_1">
      <!-- −2 -->
      <g transform="translate(87.346543 398.565797) scale(0.1 -0.1)">
       <defs>
        <path id="DejaVuSans-2212" d="M 678 2272 
L 4684 2272 
L 4684 1741 
L 678 1741 
L 678 2272 
z
" transform="scale(0.015625)"/>
        <path id="DejaVuSans-32" d="M 1228 531 
L 3431 531 
L 3431 0 
L 469 0 
L 469 531 
Q 828 903 1448 1529 
Q 2069 2156 2228 2338 
Q 2531 2678 2651 2914 
Q 2772 3150 2772 3378 
Q 2772 3750 2511 3984 
Q 2250 4219 1831 4219 
Q 1534 4219 1204 4116 
Q 875 4013 500 3803 
L 500 4441 
Q 881 4594 1212 4672 
Q 1544 4750 1819 4750 
Q 2544 4750 2975 4387 
Q 3406 4025 3406 3419 
Q 3406 3131 3298 2873 
Q 3191 2616 2906 2266 
Q 2828 2175 2409 1742 
Q 1991 1309 1228 531 
z
" transform="scale(0.015625)"/>
       </defs>
       <use xlink:href="#DejaVuSans-2212"/>
       <use xlink:href="#DejaVuSans-32" transform="translate(83.789062 0)"/>
      </g>
     </g>
    </g>
    <g id="xtick_2">
     <g id="line2d_3">
      <path d="M 196.172182 383.96736 
L 196.172182 51.77088 
" clip-path="url(#pa7cd6a8d07)" style="fill: none; stroke: #b0b0b0; stroke-width: 0.8; stroke-linecap: square"/>
     </g>
     <g id="line2d_4">
      <g>
       <use xlink:href="#m31827afb3a" x="196.172182" y="383.96736" style="stroke: #000000; stroke-width: 0.8"/>
      </g>
     </g>
     <g id="text_2">
      <!-- 0 -->
      <g transform="translate(192.990932 398.565797) scale(0.1 -0.1)">
       <defs>
        <path id="DejaVuSans-30" d="M 2034 4250 
Q 1547 4250 1301 3770 
Q 1056 3291 1056 2328 
Q 1056 1369 1301 889 
Q 1547 409 2034 409 
Q 2525 409 2770 889 
Q 3016 1369 3016 2328 
Q 3016 3291 2770 3770 
Q 2525 4250 2034 4250 
z
M 2034 4750 
Q 2819 4750 3233 4129 
Q 3647 3509 3647 2328 
Q 3647 1150 3233 529 
Q 2819 -91 2034 -91 
Q 1250 -91 836 529 
Q 422 1150 422 2328 
Q 422 3509 836 4129 
Q 1250 4750 2034 4750 
z
" transform="scale(0.015625)"/>
       </defs>
       <use xlink:href="#DejaVuSans-30"/>
      </g>
     </g>
    </g>
    <g id="xtick_3">
     <g id="line2d_5">
      <path d="M 297.626727 383.96736 
L 297.626727 51.77088 
" clip-path="url(#pa7cd6a8d07)" style="fill: none; stroke: #b0b0b0; stroke-width: 0.8; stroke-linecap: square"/>
     </g>
     <g id="line2d_6">
      <g>
       <use xlink:href="#m31827afb3a" x="297.626727" y="383.96736" style="stroke: #000000; stroke-width: 0.8"/>
      </g>
     </g>
     <g id="text_3">
      <!-- 2 -->
      <g transform="translate(294.445477 398.565797) scale(0.1 -0.1)">
       <use xlink:href="#DejaVuSans-32"/>
      </g>
     </g>
    </g>
    <g id="xtick_4">
     <g id="line2d_7">
      <path d="M 399.081273 383.96736 
L 399.081273 51.77088 
" clip-path="url(#pa7cd6a8d07)" style="fill: none; stroke: #b0b0b0; stroke-width: 0.8; stroke-linecap: square"/>
     </g>
     <g id="line2d_8">
      <g>
       <use xlink:href="#m31827afb3a" x="399.081273" y="383.96736" style="stroke: #000000; stroke-width: 0.8"/>
      </g>
     </g>
     <g id="text_4">
      <!-- 4 -->
      <g transform="translate(395.900023 398.565797) scale(0.1 -0.1)">
       <defs>
        <path id="DejaVuSans-34" d="M 2419 4116 
L 825 1625 
L 2419 1625 
L 2419 4116 
z
M 2253 4666 
L 3047 4666 
L 3047 1625 
L 3713 1625 
L 3713 1100 
L 3047 1100 
L 3047 0 
L 2419 0 
L 2419 1100 
L 313 1100 
L 313 1709 
L 2253 4666 
z
" transform="scale(0.015625)"/>
       </defs>
       <use xlink:href="#DejaVuSans-34"/>
      </g>
     </g>
    </g>
    <g id="xtick_5">
     <g id="line2d_9">
      <path d="M 500.535818 383.96736 
L 500.535818 51.77088 
" clip-path="url(#pa7cd6a8d07)" style="fill: none; stroke: #b0b0b0; stroke-width: 0.8; stroke-linecap: square"/>
     </g>
     <g id="line2d_10">
      <g>
       <use xlink:href="#m31827afb3a" x="500.535818" y="383.96736" style="stroke: #000000; stroke-width: 0.8"/>
      </g>
     </g>
     <g id="text_5">
      <!-- 6 -->
      <g transform="translate(497.354568 398.565797) scale(0.1 -0.1)">
       <defs>
        <path id="DejaVuSans-36" d="M 2113 2584 
Q 1688 2584 1439 2293 
Q 1191 2003 1191 1497 
Q 1191 994 1439 701 
Q 1688 409 2113 409 
Q 2538 409 2786 701 
Q 3034 994 3034 1497 
Q 3034 2003 2786 2293 
Q 2538 2584 2113 2584 
z
M 3366 4563 
L 3366 3988 
Q 3128 4100 2886 4159 
Q 2644 4219 2406 4219 
Q 1781 4219 1451 3797 
Q 1122 3375 1075 2522 
Q 1259 2794 1537 2939 
Q 1816 3084 2150 3084 
Q 2853 3084 3261 2657 
Q 3669 2231 3669 1497 
Q 3669 778 3244 343 
Q 2819 -91 2113 -91 
Q 1303 -91 875 529 
Q 447 1150 447 2328 
Q 447 3434 972 4092 
Q 1497 4750 2381 4750 
Q 2619 4750 2861 4703 
Q 3103 4656 3366 4563 
z
" transform="scale(0.015625)"/>
       </defs>
       <use xlink:href="#DejaVuSans-36"/>
      </g>
     </g>
    </g>
    <g id="xtick_6">
     <g id="line2d_11">
      <path d="M 601.990364 383.96736 
L 601.990364 51.77088 
" clip-path="url(#pa7cd6a8d07)" style="fill: none; stroke: #b0b0b0; stroke-width: 0.8; stroke-linecap: square"/>
     </g>
     <g id="line2d_12">
      <g>
       <use xlink:href="#m31827afb3a" x="601.990364" y="383.96736" style="stroke: #000000; stroke-width: 0.8"/>
      </g>
     </g>
     <g id="text_6">
      <!-- 8 -->
      <g transform="translate(598.809114 398.565797) scale(0.1 -0.1)">
       <defs>
        <path id="DejaVuSans-38" d="M 2034 2216 
Q 1584 2216 1326 1975 
Q 1069 1734 1069 1313 
Q 1069 891 1326 650 
Q 1584 409 2034 409 
Q 2484 409 2743 651 
Q 3003 894 3003 1313 
Q 3003 1734 2745 1975 
Q 2488 2216 2034 2216 
z
M 1403 2484 
Q 997 2584 770 2862 
Q 544 3141 544 3541 
Q 544 4100 942 4425 
Q 1341 4750 2034 4750 
Q 2731 4750 3128 4425 
Q 3525 4100 3525 3541 
Q 3525 3141 3298 2862 
Q 3072 2584 2669 2484 
Q 3125 2378 3379 2068 
Q 3634 1759 3634 1313 
Q 3634 634 3220 271 
Q 2806 -91 2034 -91 
Q 1263 -91 848 271 
Q 434 634 434 1313 
Q 434 1759 690 2068 
Q 947 2378 1403 2484 
z
M 1172 3481 
Q 1172 3119 1398 2916 
Q 1625 2713 2034 2713 
Q 2441 2713 2670 2916 
Q 2900 3119 2900 3481 
Q 2900 3844 2670 4047 
Q 2441 4250 2034 4250 
Q 1625 4250 1398 4047 
Q 1172 3844 1172 3481 
z
" transform="scale(0.015625)"/>
       </defs>
       <use xlink:href="#DejaVuSans-38"/>
      </g>
     </g>
    </g>
    <g id="text_7">
     <!-- E -->
     <g transform="translate(365.840625 412.243922) scale(0.1 -0.1)">
      <defs>
       <path id="DejaVuSans-45" d="M 628 4666 
L 3578 4666 
L 3578 4134 
L 1259 4134 
L 1259 2753 
L 3481 2753 
L 3481 2222 
L 1259 2222 
L 1259 531 
L 3634 531 
L 3634 0 
L 628 0 
L 628 4666 
z
" transform="scale(0.015625)"/>
      </defs>
      <use xlink:href="#DejaVuSans-45"/>
     </g>
    </g>
   </g>
   <g id="matplotlib.axis_2">
    <g id="ytick_1">
     <g id="line2d_13">
      <path d="M 90 344.395547 
L 648 344.395547 
" clip-path="url(#pa7cd6a8d07)" style="fill: none; stroke: #b0b0b0; stroke-width: 0.8; stroke-linecap: square"/>
     </g>
     <g id="line2d_14">
      <defs>
       <path id="mb813441740" d="M 0 0 
L -3.5 0 
" style="stroke: #000000; stroke-width: 0.8"/>
      </defs>
      <g>
       <use xlink:href="#mb813441740" x="90" y="344.395547" style="stroke: #000000; stroke-width: 0.8"/>
      </g>
     </g>
     <g id="text_8">
      <!-- 0.0 -->
      <g transform="translate(67.096875 348.194765) scale(0.1 -0.1)">
       <defs>
        <path id="DejaVuSans-2e" d="M 684 794 
L 1344 794 
L 1344 0 
L 684 0 
L 684 794 
z
" transform="scale(0.015625)"/>
       </defs>
       <use xlink:href="#DejaVuSans-30"/>
       <use xlink:href="#DejaVuSans-2e" transform="translate(63.623047 0)"/>
       <use xlink:href="#DejaVuSans-30" transform="translate(95.410156 0)"/>
      </g>
     </g>
    </g>
    <g id="ytick_2">
     <g id="line2d_15">
      <path d="M 90 298.809997 
L 648 298.809997 
" clip-path="url(#pa7cd6a8d07)" style="fill: none; stroke: #b0b0b0; stroke-width: 0.8; stroke-linecap: square"/>
     </g>
     <g id="line2d_16">
      <g>
       <use xlink:href="#mb813441740" x="90" y="298.809997" style="stroke: #000000; stroke-width: 0.8"/>
      </g>
     </g>
     <g id="text_9">
      <!-- 2.5 -->
      <g transform="translate(67.096875 302.609216) scale(0.1 -0.1)">
       <defs>
        <path id="DejaVuSans-35" d="M 691 4666 
L 3169 4666 
L 3169 4134 
L 1269 4134 
L 1269 2991 
Q 1406 3038 1543 3061 
Q 1681 3084 1819 3084 
Q 2600 3084 3056 2656 
Q 3513 2228 3513 1497 
Q 3513 744 3044 326 
Q 2575 -91 1722 -91 
Q 1428 -91 1123 -41 
Q 819 9 494 109 
L 494 744 
Q 775 591 1075 516 
Q 1375 441 1709 441 
Q 2250 441 2565 725 
Q 2881 1009 2881 1497 
Q 2881 1984 2565 2268 
Q 2250 2553 1709 2553 
Q 1456 2553 1204 2497 
Q 953 2441 691 2322 
L 691 4666 
z
" transform="scale(0.015625)"/>
       </defs>
       <use xlink:href="#DejaVuSans-32"/>
       <use xlink:href="#DejaVuSans-2e" transform="translate(63.623047 0)"/>
       <use xlink:href="#DejaVuSans-35" transform="translate(95.410156 0)"/>
      </g>
     </g>
    </g>
    <g id="ytick_3">
     <g id="line2d_17">
      <path d="M 90 253.224447 
L 648 253.224447 
" clip-path="url(#pa7cd6a8d07)" style="fill: none; stroke: #b0b0b0; stroke-width: 0.8; stroke-linecap: square"/>
     </g>
     <g id="line2d_18">
      <g>
       <use xlink:href="#mb813441740" x="90" y="253.224447" style="stroke: #000000; stroke-width: 0.8"/>
      </g>
     </g>
     <g id="text_10">
      <!-- 5.0 -->
      <g transform="translate(67.096875 257.023666) scale(0.1 -0.1)">
       <use xlink:href="#DejaVuSans-35"/>
       <use xlink:href="#DejaVuSans-2e" transform="translate(63.623047 0)"/>
       <use xlink:href="#DejaVuSans-30" transform="translate(95.410156 0)"/>
      </g>
     </g>
    </g>
    <g id="ytick_4">
     <g id="line2d_19">
      <path d="M 90 207.638898 
L 648 207.638898 
" clip-path="url(#pa7cd6a8d07)" style="fill: none; stroke: #b0b0b0; stroke-width: 0.8; stroke-linecap: square"/>
     </g>
     <g id="line2d_20">
      <g>
       <use xlink:href="#mb813441740" x="90" y="207.638898" style="stroke: #000000; stroke-width: 0.8"/>
      </g>
     </g>
     <g id="text_11">
      <!-- 7.5 -->
      <g transform="translate(67.096875 211.438116) scale(0.1 -0.1)">
       <defs>
        <path id="DejaVuSans-37" d="M 525 4666 
L 3525 4666 
L 3525 4397 
L 1831 0 
L 1172 0 
L 2766 4134 
L 525 4134 
L 525 4666 
z
" transform="scale(0.015625)"/>
       </defs>
       <use xlink:href="#DejaVuSans-37"/>
       <use xlink:href="#DejaVuSans-2e" transform="translate(63.623047 0)"/>
       <use xlink:href="#DejaVuSans-35" transform="translate(95.410156 0)"/>
      </g>
     </g>
    </g>
    <g id="ytick_5">
     <g id="line2d_21">
      <path d="M 90 162.053348 
L 648 162.053348 
" clip-path="url(#pa7cd6a8d07)" style="fill: none; stroke: #b0b0b0; stroke-width: 0.8; stroke-linecap: square"/>
     </g>
     <g id="line2d_22">
      <g>
       <use xlink:href="#mb813441740" x="90" y="162.053348" style="stroke: #000000; stroke-width: 0.8"/>
      </g>
     </g>
     <g id="text_12">
      <!-- 10.0 -->
      <g transform="translate(60.734375 165.852567) scale(0.1 -0.1)">
       <defs>
        <path id="DejaVuSans-31" d="M 794 531 
L 1825 531 
L 1825 4091 
L 703 3866 
L 703 4441 
L 1819 4666 
L 2450 4666 
L 2450 531 
L 3481 531 
L 3481 0 
L 794 0 
L 794 531 
z
" transform="scale(0.015625)"/>
       </defs>
       <use xlink:href="#DejaVuSans-31"/>
       <use xlink:href="#DejaVuSans-30" transform="translate(63.623047 0)"/>
       <use xlink:href="#DejaVuSans-2e" transform="translate(127.246094 0)"/>
       <use xlink:href="#DejaVuSans-30" transform="translate(159.033203 0)"/>
      </g>
     </g>
    </g>
    <g id="ytick_6">
     <g id="line2d_23">
      <path d="M 90 116.467798 
L 648 116.467798 
" clip-path="url(#pa7cd6a8d07)" style="fill: none; stroke: #b0b0b0; stroke-width: 0.8; stroke-linecap: square"/>
     </g>
     <g id="line2d_24">
      <g>
       <use xlink:href="#mb813441740" x="90" y="116.467798" style="stroke: #000000; stroke-width: 0.8"/>
      </g>
     </g>
     <g id="text_13">
      <!-- 12.5 -->
      <g transform="translate(60.734375 120.267017) scale(0.1 -0.1)">
       <use xlink:href="#DejaVuSans-31"/>
       <use xlink:href="#DejaVuSans-32" transform="translate(63.623047 0)"/>
       <use xlink:href="#DejaVuSans-2e" transform="translate(127.246094 0)"/>
       <use xlink:href="#DejaVuSans-35" transform="translate(159.033203 0)"/>
      </g>
     </g>
    </g>
    <g id="ytick_7">
     <g id="line2d_25">
      <path d="M 90 70.882248 
L 648 70.882248 
" clip-path="url(#pa7cd6a8d07)" style="fill: none; stroke: #b0b0b0; stroke-width: 0.8; stroke-linecap: square"/>
     </g>
     <g id="line2d_26">
      <g>
       <use xlink:href="#mb813441740" x="90" y="70.882248" style="stroke: #000000; stroke-width: 0.8"/>
      </g>
     </g>
     <g id="text_14">
      <!-- 15.0 -->
      <g transform="translate(60.734375 74.681467) scale(0.1 -0.1)">
       <use xlink:href="#DejaVuSans-31"/>
       <use xlink:href="#DejaVuSans-35" transform="translate(63.623047 0)"/>
       <use xlink:href="#DejaVuSans-2e" transform="translate(127.246094 0)"/>
       <use xlink:href="#DejaVuSans-30" transform="translate(159.033203 0)"/>
      </g>
     </g>
    </g>
    <g id="text_15">
     <!-- N -->
     <g transform="translate(54.654688 221.609745) rotate(-90) scale(0.1 -0.1)">
      <defs>
       <path id="DejaVuSans-4e" d="M 628 4666 
L 1478 4666 
L 3547 763 
L 3547 4666 
L 4159 4666 
L 4159 0 
L 3309 0 
L 1241 3903 
L 1241 0 
L 628 0 
L 628 4666 
z
" transform="scale(0.015625)"/>
      </defs>
      <use xlink:href="#DejaVuSans-4e"/>
     </g>
    </g>
   </g>
   <g id="line2d_27">
    <path d="M 166.090909 358.618238 
L 267.545455 358.618238 
L 318.272727 358.618238 
L 369 358.618238 
L 419.727273 358.618238 
L 470.454545 358.618238 
L 521.181818 358.618238 
L 571.909091 358.618238 
L 622.636364 358.618238 
L 622.636364 340.384018 
L 622.636364 322.149798 
L 622.636364 303.915579 
L 622.636364 285.681359 
L 622.636364 267.447139 
L 622.636364 249.212919 
L 622.636364 230.978699 
L 622.636364 212.744479 
L 622.636364 194.510259 
L 622.636364 176.276039 
L 622.636364 158.041819 
L 622.636364 139.8076 
L 622.636364 121.57338 
L 622.636364 103.33916 
L 622.636364 85.10494 
L 622.636364 66.87072 
L 571.909091 66.87072 
L 521.181818 66.87072 
L 470.454545 66.87072 
L 419.727273 66.87072 
L 369 66.87072 
L 318.272727 66.87072 
L 267.545455 66.87072 
L 216.818182 66.87072 
L 166.090909 66.87072 
L 166.090909 85.10494 
L 166.090909 103.33916 
L 166.090909 121.57338 
L 166.090909 139.8076 
L 115.363636 158.041819 
L 115.363636 176.276039 
L 115.363636 194.510259 
L 115.363636 212.744479 
L 115.363636 230.978699 
L 115.363636 249.212919 
L 115.363636 267.447139 
L 115.363636 285.681359 
L 115.363636 303.915579 
L 115.363636 322.149798 
L 115.363636 340.384018 
L 166.090909 358.618238 
" clip-path="url(#pa7cd6a8d07)" style="fill: none; stroke: #0000ff; stroke-linecap: square"/>
    <defs>
     <path id="mdec82a9b83" d="M 0 2 
C 0.530406 2 1.03916 1.789267 1.414214 1.414214 
C 1.789267 1.03916 2 0.530406 2 0 
C 2 -0.530406 1.789267 -1.03916 1.414214 -1.414214 
C 1.03916 -1.789267 0.530406 -2 0 -2 
C -0.530406 -2 -1.03916 -1.789267 -1.414214 -1.414214 
C -1.789267 -1.03916 -2 -0.530406 -2 0 
C -2 0.530406 -1.789267 1.03916 -1.414214 1.414214 
C -1.03916 1.789267 -0.530406 2 0 2 
z
" style="stroke: #0000ff"/>
    </defs>
    <g clip-path="url(#pa7cd6a8d07)">
     <use xlink:href="#mdec82a9b83" x="166.090909" y="358.618238" style="fill: #0000ff; stroke: #0000ff"/>
     <use xlink:href="#mdec82a9b83" x="267.545455" y="358.618238" style="fill: #0000ff; stroke: #0000ff"/>
     <use xlink:href="#mdec82a9b83" x="318.272727" y="358.618238" style="fill: #0000ff; stroke: #0000ff"/>
     <use xlink:href="#mdec82a9b83" x="369" y="358.618238" style="fill: #0000ff; stroke: #0000ff"/>
     <use xlink:href="#mdec82a9b83" x="419.727273" y="358.618238" style="fill: #0000ff; stroke: #0000ff"/>
     <use xlink:href="#mdec82a9b83" x="470.454545" y="358.618238" style="fill: #0000ff; stroke: #0000ff"/>
     <use xlink:href="#mdec82a9b83" x="521.181818" y="358.618238" style="fill: #0000ff; stroke: #0000ff"/>
     <use xlink:href="#mdec82a9b83" x="571.909091" y="358.618238" style="fill: #0000ff; stroke: #0000ff"/>
     <use xlink:href="#mdec82a9b83" x="622.636364" y="358.618238" style="fill: #0000ff; stroke: #0000ff"/>
     <use xlink:href="#mdec82a9b83" x="622.636364" y="340.384018" style="fill: #0000ff; stroke: #0000ff"/>
     <use xlink:href="#mdec82a9b83" x="622.636364" y="322.149798" style="fill: #0000ff; stroke: #0000ff"/>
     <use xlink:href="#mdec82a9b83" x="622.636364" y="303.915579" style="fill: #0000ff; stroke: #0000ff"/>
     <use xlink:href="#mdec82a9b83" x="622.636364" y="285.681359" style="fill: #0000ff; stroke: #0000ff"/>
     <use xlink:href="#mdec82a9b83" x="622.636364" y="267.447139" style="fill: #0000ff; stroke: #0000ff"/>
     <use xlink:href="#mdec82a9b83" x="622.636364" y="249.212919" style="fill: #0000ff; stroke: #0000ff"/>
     <use xlink:href="#mdec82a9b83" x="622.636364" y="230.978699" style="fill: #0000ff; stroke: #0000ff"/>
     <use xlink:href="#mdec82a9b83" x="622.636364" y="212.744479" style="fill: #0000ff; stroke: #0000ff"/>
     <use xlink:href="#mdec82a9b83" x="622.636364" y="194.510259" style="fill: #0000ff; stroke: #0000ff"/>
     <use xlink:href="#mdec82a9b83" x="622.636364" y="176.276039" style="fill: #0000ff; stroke: #0000ff"/>
     <use xlink:href="#mdec82a9b83" x="622.636364" y="158.041819" style="fill: #0000ff; stroke: #0000ff"/>
     <use xlink:href="#mdec82a9b83" x="622.636364" y="139.8076" style="fill: #0000ff; stroke: #0000ff"/>
     <use xlink:href="#mdec82a9b83" x="622.636364" y="121.57338" style="fill: #0000ff; stroke: #0000ff"/>
     <use xlink:href="#mdec82a9b83" x="622.636364" y="103.33916" style="fill: #0000ff; stroke: #0000ff"/>
     <use xlink:href="#mdec82a9b83" x="622.636364" y="85.10494" style="fill: #0000ff; stroke: #0000ff"/>
     <use xlink:href="#mdec82a9b83" x="622.636364" y="66.87072" style="fill: #0000ff; stroke: #0000ff"/>
     <use xlink:href="#mdec82a9b83" x="571.909091" y="66.87072" style="fill: #0000ff; stroke: #0000ff"/>
     <use xlink:href="#mdec82a9b83" x="521.181818" y="66.87072" style="fill: #0000ff; stroke: #0000ff"/>
     <use xlink:href="#mdec82a9b83" x="470.454545" y="66.87072" style="fill: #0000ff; stroke: #0000ff"/>
     <use xlink:href="#mdec82a9b83" x="419.727273" y="66.87072" style="fill: #0000ff; stroke: #0000ff"/>
     <use xlink:href="#mdec82a9b83" x="369" y="66.87072" style="fill: #0000ff; stroke: #0000ff"/>
     <use xlink:href="#mdec82a9b83" x="318.272727" y="66.87072" style="fill: #0000ff; stroke: #0000ff"/>
     <use xlink:href="#mdec82a9b83" x="267.545455" y="66.87072" style="fill: #0000ff; stroke: #0000ff"/>
     <use xlink:href="#mdec82a9b83" x="216.818182" y="66.87072" style="fill: #0000ff; stroke: #0000ff"/>
     <use xlink:href="#mdec82a9b83" x="166.090909" y="66.87072" style="fill: #0000ff; stroke: #0000ff"/>
     <use xlink:href="#mdec82a9b83" x="166.090909" y="85.10494" style="fill: #0000ff; stroke: #0000ff"/>
     <use xlink:href="#mdec82a9b83" x="166.090909" y="103.33916" style="fill: #0000ff; stroke: #0000ff"/>
     <use xlink:href="#mdec82a9b83" x="166.090909" y="121.57338" style="fill: #0000ff; stroke: #0000ff"/>
     <use xlink:href="#mdec82a9b83" x="166.090909" y="139.8076" style="fill: #0000ff; stroke: #0000ff"/>
     <use xlink:href="#mdec82a9b83" x="115.363636" y="158.041819" style="fill: #0000ff; stroke: #0000ff"/>
     <use xlink:href="#mdec82a9b83" x="115.363636" y="176.276039" style="fill: #0000ff; stroke: #0000ff"/>
     <use xlink:href="#mdec82a9b83" x="115.363636" y="194.510259" style="fill: #0000ff; stroke: #0000ff"/>
     <use xlink:href="#mdec82a9b83" x="115.363636" y="212.744479" style="fill: #0000ff; stroke: #0000ff"/>
     <use xlink:href="#mdec82a9b83" x="115.363636" y="230.978699" style="fill: #0000ff; stroke: #0000ff"/>
     <use xlink:href="#mdec82a9b83" x="115.363636" y="249.212919" style="fill: #0000ff; stroke: #0000ff"/>
     <use xlink:href="#mdec82a9b83" x="115.363636" y="267.447139" style="fill: #0000ff; stroke: #0000ff"/>
     <use xlink:href="#mdec82a9b83" x="115.363636" y="285.681359" style="fill: #0000ff; stroke: #0000ff"/>
     <use xlink:href="#mdec82a9b83" x="115.363636" y="303.915579" style="fill: #0000ff; stroke: #0000ff"/>
     <use xlink:href="#mdec82a9b83" x="115.363636" y="322.149798" style="fill: #0000ff; stroke: #0000ff"/>
     <use xlink:href="#mdec82a9b83" x="115.363636" y="340.384018" style="fill: #0000ff; stroke: #0000ff"/>
     <use xlink:href="#mdec82a9b83" x="166.090909" y="358.618238" style="fill: #0000ff; stroke: #0000ff"/>
    </g>
   </g>
   <g id="line2d_28">
    <path d="M 141.010345 349.806384 
L 388.390552 358.618238 
L 359.117142 358.618238 
L 381.378363 363.067715 
L 465.532637 358.618238 
L 470.454545 351.328547 
L 396.579954 358.618238 
L 622.636364 340.785779 
L 527.481182 368.86752 
L 622.636364 333.490995 
L 577.096779 330.334536 
L 622.636364 318.638971 
L 569.59703 295.214011 
L 599.562681 282.388808 
L 609.94371 267.462718 
L 598.441864 275.303489 
L 609.314144 227.110733 
L 622.636364 184.827584 
L 598.962544 167.766344 
L 622.636364 166.149146 
L 622.636364 146.67337 
L 598.537107 66.87072 
L 596.95489 84.876443 
L 597.229048 75.972129 
L 545.9499 76.201906 
L 595.892714 131.186544 
L 549.905627 66.87072 
L 393.079761 66.87072 
L 420.779084 66.87072 
L 292.75418 66.87072 
L 390.199535 66.87072 
L 245.237263 66.87072 
L 192.293816 66.87072 
L 138.843453 66.87072 
L 166.090909 95.000786 
L 166.090909 95.334402 
L 166.090909 112.946617 
L 155.479909 139.8076 
L 139.548518 131.1142 
L 115.363636 184.977488 
L 141.49914 258.607481 
L 115.363636 204.01125 
L 115.363636 239.312901 
L 139.475725 266.547387 
L 166.090909 314.182588 
L 136.740095 285.681359 
L 136.740095 285.681359 
L 115.363636 293.624181 
L 240.44127 358.618238 
L 191.850208 358.618238 
" clip-path="url(#pa7cd6a8d07)" style="fill: none; stroke: #ff0000; stroke-linecap: square"/>
    <defs>
     <path id="m88ed1345d2" d="M 0 -2 
L -2 2 
L 2 2 
z
" style="stroke: #ff0000; stroke-linejoin: miter"/>
    </defs>
    <g clip-path="url(#pa7cd6a8d07)">
     <use xlink:href="#m88ed1345d2" x="141.010345" y="349.806384" style="fill: #ff0000; stroke: #ff0000; stroke-linejoin: miter"/>
     <use xlink:href="#m88ed1345d2" x="388.390552" y="358.618238" style="fill: #ff0000; stroke: #ff0000; stroke-linejoin: miter"/>
     <use xlink:href="#m88ed1345d2" x="359.117142" y="358.618238" style="fill: #ff0000; stroke: #ff0000; stroke-linejoin: miter"/>
     <use xlink:href="#m88ed1345d2" x="381.378363" y="363.067715" style="fill: #ff0000; stroke: #ff0000; stroke-linejoin: miter"/>
     <use xlink:href="#m88ed1345d2" x="465.532637" y="358.618238" style="fill: #ff0000; stroke: #ff0000; stroke-linejoin: miter"/>
     <use xlink:href="#m88ed1345d2" x="470.454545" y="351.328547" style="fill: #ff0000; stroke: #ff0000; stroke-linejoin: miter"/>
     <use xlink:href="#m88ed1345d2" x="396.579954" y="358.618238" style="fill: #ff0000; stroke: #ff0000; stroke-linejoin: miter"/>
     <use xlink:href="#m88ed1345d2" x="622.636364" y="340.785779" style="fill: #ff0000; stroke: #ff0000; stroke-linejoin: miter"/>
     <use xlink:href="#m88ed1345d2" x="527.481182" y="368.86752" style="fill: #ff0000; stroke: #ff0000; stroke-linejoin: miter"/>
     <use xlink:href="#m88ed1345d2" x="622.636364" y="333.490995" style="fill: #ff0000; stroke: #ff0000; stroke-linejoin: miter"/>
     <use xlink:href="#m88ed1345d2" x="577.096779" y="330.334536" style="fill: #ff0000; stroke: #ff0000; stroke-linejoin: miter"/>
     <use xlink:href="#m88ed1345d2" x="622.636364" y="318.638971" style="fill: #ff0000; stroke: #ff0000; stroke-linejoin: miter"/>
     <use xlink:href="#m88ed1345d2" x="569.59703" y="295.214011" style="fill: #ff0000; stroke: #ff0000; stroke-linejoin: miter"/>
     <use xlink:href="#m88ed1345d2" x="599.562681" y="282.388808" style="fill: #ff0000; stroke: #ff0000; stroke-linejoin: miter"/>
     <use xlink:href="#m88ed1345d2" x="609.94371" y="267.462718" style="fill: #ff0000; stroke: #ff0000; stroke-linejoin: miter"/>
     <use xlink:href="#m88ed1345d2" x="598.441864" y="275.303489" style="fill: #ff0000; stroke: #ff0000; stroke-linejoin: miter"/>
     <use xlink:href="#m88ed1345d2" x="609.314144" y="227.110733" style="fill: #ff0000; stroke: #ff0000; stroke-linejoin: miter"/>
     <use xlink:href="#m88ed1345d2" x="622.636364" y="184.827584" style="fill: #ff0000; stroke: #ff0000; stroke-linejoin: miter"/>
     <use xlink:href="#m88ed1345d2" x="598.962544" y="167.766344" style="fill: #ff0000; stroke: #ff0000; stroke-linejoin: miter"/>
     <use xlink:href="#m88ed1345d2" x="622.636364" y="166.149146" style="fill: #ff0000; stroke: #ff0000; stroke-linejoin: miter"/>
     <use xlink:href="#m88ed1345d2" x="622.636364" y="146.67337" style="fill: #ff0000; stroke: #ff0000; stroke-linejoin: miter"/>
     <use xlink:href="#m88ed1345d2" x="598.537107" y="66.87072" style="fill: #ff0000; stroke: #ff0000; stroke-linejoin: miter"/>
     <use xlink:href="#m88ed1345d2" x="596.95489" y="84.876443" style="fill: #ff0000; stroke: #ff0000; stroke-linejoin: miter"/>
     <use xlink:href="#m88ed1345d2" x="597.229048" y="75.972129" style="fill: #ff0000; stroke: #ff0000; stroke-linejoin: miter"/>
     <use xlink:href="#m88ed1345d2" x="545.9499" y="76.201906" style="fill: #ff0000; stroke: #ff0000; stroke-linejoin: miter"/>
     <use xlink:href="#m88ed1345d2" x="595.892714" y="131.186544" style="fill: #ff0000; stroke: #ff0000; stroke-linejoin: miter"/>
     <use xlink:href="#m88ed1345d2" x="549.905627" y="66.87072" style="fill: #ff0000; stroke: #ff0000; stroke-linejoin: miter"/>
     <use xlink:href="#m88ed1345d2" x="393.079761" y="66.87072" style="fill: #ff0000; stroke: #ff0000; stroke-linejoin: miter"/>
     <use xlink:href="#m88ed1345d2" x="420.779084" y="66.87072" style="fill: #ff0000; stroke: #ff0000; stroke-linejoin: miter"/>
     <use xlink:href="#m88ed1345d2" x="292.75418" y="66.87072" style="fill: #ff0000; stroke: #ff0000; stroke-linejoin: miter"/>
     <use xlink:href="#m88ed1345d2" x="390.199535" y="66.87072" style="fill: #ff0000; stroke: #ff0000; stroke-linejoin: miter"/>
     <use xlink:href="#m88ed1345d2" x="245.237263" y="66.87072" style="fill: #ff0000; stroke: #ff0000; stroke-linejoin: miter"/>
     <use xlink:href="#m88ed1345d2" x="192.293816" y="66.87072" style="fill: #ff0000; stroke: #ff0000; stroke-linejoin: miter"/>
     <use xlink:href="#m88ed1345d2" x="138.843453" y="66.87072" style="fill: #ff0000; stroke: #ff0000; stroke-linejoin: miter"/>
     <use xlink:href="#m88ed1345d2" x="166.090909" y="95.000786" style="fill: #ff0000; stroke: #ff0000; stroke-linejoin: miter"/>
     <use xlink:href="#m88ed1345d2" x="166.090909" y="95.334402" style="fill: #ff0000; stroke: #ff0000; stroke-linejoin: miter"/>
     <use xlink:href="#m88ed1345d2" x="166.090909" y="112.946617" style="fill: #ff0000; stroke: #ff0000; stroke-linejoin: miter"/>
     <use xlink:href="#m88ed1345d2" x="155.479909" y="139.8076" style="fill: #ff0000; stroke: #ff0000; stroke-linejoin: miter"/>
     <use xlink:href="#m88ed1345d2" x="139.548518" y="131.1142" style="fill: #ff0000; stroke: #ff0000; stroke-linejoin: miter"/>
     <use xlink:href="#m88ed1345d2" x="115.363636" y="184.977488" style="fill: #ff0000; stroke: #ff0000; stroke-linejoin: miter"/>
     <use xlink:href="#m88ed1345d2" x="141.49914" y="258.607481" style="fill: #ff0000; stroke: #ff0000; stroke-linejoin: miter"/>
     <use xlink:href="#m88ed1345d2" x="115.363636" y="204.01125" style="fill: #ff0000; stroke: #ff0000; stroke-linejoin: miter"/>
     <use xlink:href="#m88ed1345d2" x="115.363636" y="239.312901" style="fill: #ff0000; stroke: #ff0000; stroke-linejoin: miter"/>
     <use xlink:href="#m88ed1345d2" x="139.475725" y="266.547387" style="fill: #ff0000; stroke: #ff0000; stroke-linejoin: miter"/>
     <use xlink:href="#m88ed1345d2" x="166.090909" y="314.182588" style="fill: #ff0000; stroke: #ff0000; stroke-linejoin: miter"/>
     <use xlink:href="#m88ed1345d2" x="136.740095" y="285.681359" style="fill: #ff0000; stroke: #ff0000; stroke-linejoin: miter"/>
     <use xlink:href="#m88ed1345d2" x="136.740095" y="285.681359" style="fill: #ff0000; stroke: #ff0000; stroke-linejoin: miter"/>
     <use xlink:href="#m88ed1345d2" x="115.363636" y="293.624181" style="fill: #ff0000; stroke: #ff0000; stroke-linejoin: miter"/>
     <use xlink:href="#m88ed1345d2" x="240.44127" y="358.618238" style="fill: #ff0000; stroke: #ff0000; stroke-linejoin: miter"/>
     <use xlink:href="#m88ed1345d2" x="191.850208" y="358.618238" style="fill: #ff0000; stroke: #ff0000; stroke-linejoin: miter"/>
    </g>
   </g>
   <g id="patch_3">
    <path d="M 90 383.96736 
L 90 51.77088 
" style="fill: none; stroke: #000000; stroke-width: 0.8; stroke-linejoin: miter; stroke-linecap: square"/>
   </g>
   <g id="patch_4">
    <path d="M 648 383.96736 
L 648 51.77088 
" style="fill: none; stroke: #000000; stroke-width: 0.8; stroke-linejoin: miter; stroke-linecap: square"/>
   </g>
   <g id="patch_5">
    <path d="M 90 383.96736 
L 648 383.96736 
" style="fill: none; stroke: #000000; stroke-width: 0.8; stroke-linejoin: miter; stroke-linecap: square"/>
   </g>
   <g id="patch_6">
    <path d="M 90 51.77088 
L 648 51.77088 
" style="fill: none; stroke: #000000; stroke-width: 0.8; stroke-linejoin: miter; stroke-linecap: square"/>
   </g>
   <g id="legend_1">
    <g id="patch_7">
     <path d="M 327.823438 234.047245 
L 410.176563 234.047245 
Q 412.176563 234.047245 412.176563 232.047245 
L 412.176563 203.690995 
Q 412.176563 201.690995 410.176563 201.690995 
L 327.823438 201.690995 
Q 325.823438 201.690995 325.823438 203.690995 
L 325.823438 232.047245 
Q 325.823438 234.047245 327.823438 234.047245 
z
" style="fill: #ffffff; opacity: 0.8; stroke: #cccccc; stroke-linejoin: miter"/>
    </g>
    <g id="line2d_29">
     <path d="M 329.823438 209.789432 
L 339.823438 209.789432 
L 349.823438 209.789432 
" style="fill: none; stroke: #0000ff; stroke-linecap: square"/>
     <g>
      <use xlink:href="#mdec82a9b83" x="339.823438" y="209.789432" style="fill: #0000ff; stroke: #0000ff"/>
     </g>
    </g>
    <g id="text_16">
     <!-- Reference -->
     <g transform="translate(357.823438 213.289432) scale(0.1 -0.1)">
      <defs>
       <path id="DejaVuSans-52" d="M 2841 2188 
Q 3044 2119 3236 1894 
Q 3428 1669 3622 1275 
L 4263 0 
L 3584 0 
L 2988 1197 
Q 2756 1666 2539 1819 
Q 2322 1972 1947 1972 
L 1259 1972 
L 1259 0 
L 628 0 
L 628 4666 
L 2053 4666 
Q 2853 4666 3247 4331 
Q 3641 3997 3641 3322 
Q 3641 2881 3436 2590 
Q 3231 2300 2841 2188 
z
M 1259 4147 
L 1259 2491 
L 2053 2491 
Q 2509 2491 2742 2702 
Q 2975 2913 2975 3322 
Q 2975 3731 2742 3939 
Q 2509 4147 2053 4147 
L 1259 4147 
z
" transform="scale(0.015625)"/>
       <path id="DejaVuSans-65" d="M 3597 1894 
L 3597 1613 
L 953 1613 
Q 991 1019 1311 708 
Q 1631 397 2203 397 
Q 2534 397 2845 478 
Q 3156 559 3463 722 
L 3463 178 
Q 3153 47 2828 -22 
Q 2503 -91 2169 -91 
Q 1331 -91 842 396 
Q 353 884 353 1716 
Q 353 2575 817 3079 
Q 1281 3584 2069 3584 
Q 2775 3584 3186 3129 
Q 3597 2675 3597 1894 
z
M 3022 2063 
Q 3016 2534 2758 2815 
Q 2500 3097 2075 3097 
Q 1594 3097 1305 2825 
Q 1016 2553 972 2059 
L 3022 2063 
z
" transform="scale(0.015625)"/>
       <path id="DejaVuSans-66" d="M 2375 4863 
L 2375 4384 
L 1825 4384 
Q 1516 4384 1395 4259 
Q 1275 4134 1275 3809 
L 1275 3500 
L 2222 3500 
L 2222 3053 
L 1275 3053 
L 1275 0 
L 697 0 
L 697 3053 
L 147 3053 
L 147 3500 
L 697 3500 
L 697 3744 
Q 697 4328 969 4595 
Q 1241 4863 1831 4863 
L 2375 4863 
z
" transform="scale(0.015625)"/>
       <path id="DejaVuSans-72" d="M 2631 2963 
Q 2534 3019 2420 3045 
Q 2306 3072 2169 3072 
Q 1681 3072 1420 2755 
Q 1159 2438 1159 1844 
L 1159 0 
L 581 0 
L 581 3500 
L 1159 3500 
L 1159 2956 
Q 1341 3275 1631 3429 
Q 1922 3584 2338 3584 
Q 2397 3584 2469 3576 
Q 2541 3569 2628 3553 
L 2631 2963 
z
" transform="scale(0.015625)"/>
       <path id="DejaVuSans-6e" d="M 3513 2113 
L 3513 0 
L 2938 0 
L 2938 2094 
Q 2938 2591 2744 2837 
Q 2550 3084 2163 3084 
Q 1697 3084 1428 2787 
Q 1159 2491 1159 1978 
L 1159 0 
L 581 0 
L 581 3500 
L 1159 3500 
L 1159 2956 
Q 1366 3272 1645 3428 
Q 1925 3584 2291 3584 
Q 2894 3584 3203 3211 
Q 3513 2838 3513 2113 
z
" transform="scale(0.015625)"/>
       <path id="DejaVuSans-63" d="M 3122 3366 
L 3122 2828 
Q 2878 2963 2633 3030 
Q 2388 3097 2138 3097 
Q 1578 3097 1268 2742 
Q 959 2388 959 1747 
Q 959 1106 1268 751 
Q 1578 397 2138 397 
Q 2388 397 2633 464 
Q 2878 531 3122 666 
L 3122 134 
Q 2881 22 2623 -34 
Q 2366 -91 2075 -91 
Q 1284 -91 818 406 
Q 353 903 353 1747 
Q 353 2603 823 3093 
Q 1294 3584 2113 3584 
Q 2378 3584 2631 3529 
Q 2884 3475 3122 3366 
z
" transform="scale(0.015625)"/>
      </defs>
      <use xlink:href="#DejaVuSans-52"/>
      <use xlink:href="#DejaVuSans-65" transform="translate(64.982422 0)"/>
      <use xlink:href="#DejaVuSans-66" transform="translate(126.505859 0)"/>
      <use xlink:href="#DejaVuSans-65" transform="translate(161.710938 0)"/>
      <use xlink:href="#DejaVuSans-72" transform="translate(223.234375 0)"/>
      <use xlink:href="#DejaVuSans-65" transform="translate(262.097656 0)"/>
      <use xlink:href="#DejaVuSans-6e" transform="translate(323.621094 0)"/>
      <use xlink:href="#DejaVuSans-63" transform="translate(387 0)"/>
      <use xlink:href="#DejaVuSans-65" transform="translate(441.980469 0)"/>
     </g>
    </g>
    <g id="line2d_30">
     <path d="M 329.823438 224.467557 
L 339.823438 224.467557 
L 349.823438 224.467557 
" style="fill: none; stroke: #ff0000; stroke-linecap: square"/>
     <g>
      <use xlink:href="#m88ed1345d2" x="339.823438" y="224.467557" style="fill: #ff0000; stroke: #ff0000; stroke-linejoin: miter"/>
     </g>
    </g>
    <g id="text_17">
     <!-- Ours -->
     <g transform="translate(357.823438 227.967557) scale(0.1 -0.1)">
      <defs>
       <path id="DejaVuSans-4f" d="M 2522 4238 
Q 1834 4238 1429 3725 
Q 1025 3213 1025 2328 
Q 1025 1447 1429 934 
Q 1834 422 2522 422 
Q 3209 422 3611 934 
Q 4013 1447 4013 2328 
Q 4013 3213 3611 3725 
Q 3209 4238 2522 4238 
z
M 2522 4750 
Q 3503 4750 4090 4092 
Q 4678 3434 4678 2328 
Q 4678 1225 4090 567 
Q 3503 -91 2522 -91 
Q 1538 -91 948 565 
Q 359 1222 359 2328 
Q 359 3434 948 4092 
Q 1538 4750 2522 4750 
z
" transform="scale(0.015625)"/>
       <path id="DejaVuSans-75" d="M 544 1381 
L 544 3500 
L 1119 3500 
L 1119 1403 
Q 1119 906 1312 657 
Q 1506 409 1894 409 
Q 2359 409 2629 706 
Q 2900 1003 2900 1516 
L 2900 3500 
L 3475 3500 
L 3475 0 
L 2900 0 
L 2900 538 
Q 2691 219 2414 64 
Q 2138 -91 1772 -91 
Q 1169 -91 856 284 
Q 544 659 544 1381 
z
M 1991 3584 
L 1991 3584 
z
" transform="scale(0.015625)"/>
       <path id="DejaVuSans-73" d="M 2834 3397 
L 2834 2853 
Q 2591 2978 2328 3040 
Q 2066 3103 1784 3103 
Q 1356 3103 1142 2972 
Q 928 2841 928 2578 
Q 928 2378 1081 2264 
Q 1234 2150 1697 2047 
L 1894 2003 
Q 2506 1872 2764 1633 
Q 3022 1394 3022 966 
Q 3022 478 2636 193 
Q 2250 -91 1575 -91 
Q 1294 -91 989 -36 
Q 684 19 347 128 
L 347 722 
Q 666 556 975 473 
Q 1284 391 1588 391 
Q 1994 391 2212 530 
Q 2431 669 2431 922 
Q 2431 1156 2273 1281 
Q 2116 1406 1581 1522 
L 1381 1569 
Q 847 1681 609 1914 
Q 372 2147 372 2553 
Q 372 3047 722 3315 
Q 1072 3584 1716 3584 
Q 2034 3584 2315 3537 
Q 2597 3491 2834 3397 
z
" transform="scale(0.015625)"/>
      </defs>
      <use xlink:href="#DejaVuSans-4f"/>
      <use xlink:href="#DejaVuSans-75" transform="translate(78.710938 0)"/>
      <use xlink:href="#DejaVuSans-72" transform="translate(142.089844 0)"/>
      <use xlink:href="#DejaVuSans-73" transform="translate(183.203125 0)"/>
     </g>
    </g>
   </g>
  </g>
 </g>
 <defs>
  <clipPath id="pa7cd6a8d07">
   <rect x="90" y="51.77088" width="558" height="332.19648"/>
  </clipPath>
 </defs>
</svg>
