<?xml version="1.0" encoding="utf-8" standalone="no"?>
<!DOCTYPE svg PUBLIC "-//W3C//DTD SVG 1.1//EN"
  "http://www.w3.org/Graphics/SVG/1.1/DTD/svg11.dtd">
<svg xmlns:xlink="http://www.w3.org/1999/xlink" width="720pt" height="432pt" viewBox="0 0 720 432" xmlns="http://www.w3.org/2000/svg" version="1.1">
 <metadata>
  <rdf:RDF xmlns:dc="http://purl.org/dc/elements/1.1/" xmlns:cc="http://creativecommons.org/ns#" xmlns:rdf="http://www.w3.org/1999/02/22-rdf-syntax-ns#">
   <cc:Work>
    <dc:type rdf:resource="http://purl.org/dc/dcmitype/StillImage"/>
    <dc:date>2025-11-14T17:16:18.709946</dc:date>
    <dc:format>image/svg+xml</dc:format>
    <dc:creator>
     <cc:Agent>
      <dc:title>Matplotlib v3.10.7, https://matplotlib.org/</dc:title>
     </cc:Agent>
    </dc:creator>
   </cc:Work>
  </rdf:RDF>
 </metadata>
 <defs>
  <style type="text/css">*{stroke-linejoin: round; stroke-linecap: butt}</style>
 </defs>
 <g id="figure_1">
  <g id="patch_1">
   <path d="M 0 432 
L 720 432 
L 720 0 
L 0 0 
z
" style="fill: #ffffff"/>
  </g>
  <g id="axes_1">
   <g id="patch_2">
    <path d="M 90 384.48 
L 648 384.48 
L 648 51.84 
L 90 51.84 
z
" style="fill: #ffffff"/>
   </g>
   <g id="matplotlib.axis_1">
    <g id="xtick_1">
     <g id="line2d_1">
      <path d="M 110.588116 384.48 
L 110.588116 51.84 
" clip-path="url(#pbbc8b4408f)" style="fill: none; stroke: #b0b0b0; stroke-width: 0.8; stroke-linecap: square"/>
     </g>
     <g id="line2d_2">
      <defs>
       <path id="m4aba354c68" d="M 0 0 
L 0 3.5 
" style="stroke: #000000; stroke-width: 0.8"/>
      </defs>
      <g>
       <use xlink:href="#m4aba354c68" x="110.588116" y="384.48" style="stroke: #000000; stroke-width: 0.8"/>
      </g>
     </g>
     <g id="text_1">
      <!-- −2 -->
      <g transform="translate(103.217023 399.078438) scale(0.1 -0.1)">
       <defs>
        <path id="DejaVuSans-2212" d="M 678 2272 
L 4684 2272 
L 4684 1741 
L 678 1741 
L 678 2272 
z
" transform="scale(0.015625)"/>
        <path id="DejaVuSans-32" d="M 1228 531 
L 3431 531 
L 3431 0 
L 469 0 
L 469 531 
Q 828 903 1448 1529 
Q 2069 2156 2228 2338 
Q 2531 2678 2651 2914 
Q 2772 3150 2772 3378 
Q 2772 3750 2511 3984 
Q 2250 4219 1831 4219 
Q 1534 4219 1204 4116 
Q 875 4013 500 3803 
L 500 4441 
Q 881 4594 1212 4672 
Q 1544 4750 1819 4750 
Q 2544 4750 2975 4387 
Q 3406 4025 3406 3419 
Q 3406 3131 3298 2873 
Q 3191 2616 2906 2266 
Q 2828 2175 2409 1742 
Q 1991 1309 1228 531 
z
" transform="scale(0.015625)"/>
       </defs>
       <use xlink:href="#DejaVuSans-2212"/>
       <use xlink:href="#DejaVuSans-32" transform="translate(83.789062 0)"/>
      </g>
     </g>
    </g>
    <g id="xtick_2">
     <g id="line2d_3">
      <path d="M 208.992699 384.48 
L 208.992699 51.84 
" clip-path="url(#pbbc8b4408f)" style="fill: none; stroke: #b0b0b0; stroke-width: 0.8; stroke-linecap: square"/>
     </g>
     <g id="line2d_4">
      <g>
       <use xlink:href="#m4aba354c68" x="208.992699" y="384.48" style="stroke: #000000; stroke-width: 0.8"/>
      </g>
     </g>
     <g id="text_2">
      <!-- 0 -->
      <g transform="translate(205.811449 399.078438) scale(0.1 -0.1)">
       <defs>
        <path id="DejaVuSans-30" d="M 2034 4250 
Q 1547 4250 1301 3770 
Q 1056 3291 1056 2328 
Q 1056 1369 1301 889 
Q 1547 409 2034 409 
Q 2525 409 2770 889 
Q 3016 1369 3016 2328 
Q 3016 3291 2770 3770 
Q 2525 4250 2034 4250 
z
M 2034 4750 
Q 2819 4750 3233 4129 
Q 3647 3509 3647 2328 
Q 3647 1150 3233 529 
Q 2819 -91 2034 -91 
Q 1250 -91 836 529 
Q 422 1150 422 2328 
Q 422 3509 836 4129 
Q 1250 4750 2034 4750 
z
" transform="scale(0.015625)"/>
       </defs>
       <use xlink:href="#DejaVuSans-30"/>
      </g>
     </g>
    </g>
    <g id="xtick_3">
     <g id="line2d_5">
      <path d="M 307.397282 384.48 
L 307.397282 51.84 
" clip-path="url(#pbbc8b4408f)" style="fill: none; stroke: #b0b0b0; stroke-width: 0.8; stroke-linecap: square"/>
     </g>
     <g id="line2d_6">
      <g>
       <use xlink:href="#m4aba354c68" x="307.397282" y="384.48" style="stroke: #000000; stroke-width: 0.8"/>
      </g>
     </g>
     <g id="text_3">
      <!-- 2 -->
      <g transform="translate(304.216032 399.078438) scale(0.1 -0.1)">
       <use xlink:href="#DejaVuSans-32"/>
      </g>
     </g>
    </g>
    <g id="xtick_4">
     <g id="line2d_7">
      <path d="M 405.801865 384.48 
L 405.801865 51.84 
" clip-path="url(#pbbc8b4408f)" style="fill: none; stroke: #b0b0b0; stroke-width: 0.8; stroke-linecap: square"/>
     </g>
     <g id="line2d_8">
      <g>
       <use xlink:href="#m4aba354c68" x="405.801865" y="384.48" style="stroke: #000000; stroke-width: 0.8"/>
      </g>
     </g>
     <g id="text_4">
      <!-- 4 -->
      <g transform="translate(402.620615 399.078438) scale(0.1 -0.1)">
       <defs>
        <path id="DejaVuSans-34" d="M 2419 4116 
L 825 1625 
L 2419 1625 
L 2419 4116 
z
M 2253 4666 
L 3047 4666 
L 3047 1625 
L 3713 1625 
L 3713 1100 
L 3047 1100 
L 3047 0 
L 2419 0 
L 2419 1100 
L 313 1100 
L 313 1709 
L 2253 4666 
z
" transform="scale(0.015625)"/>
       </defs>
       <use xlink:href="#DejaVuSans-34"/>
      </g>
     </g>
    </g>
    <g id="xtick_5">
     <g id="line2d_9">
      <path d="M 504.206448 384.48 
L 504.206448 51.84 
" clip-path="url(#pbbc8b4408f)" style="fill: none; stroke: #b0b0b0; stroke-width: 0.8; stroke-linecap: square"/>
     </g>
     <g id="line2d_10">
      <g>
       <use xlink:href="#m4aba354c68" x="504.206448" y="384.48" style="stroke: #000000; stroke-width: 0.8"/>
      </g>
     </g>
     <g id="text_5">
      <!-- 6 -->
      <g transform="translate(501.025198 399.078438) scale(0.1 -0.1)">
       <defs>
        <path id="DejaVuSans-36" d="M 2113 2584 
Q 1688 2584 1439 2293 
Q 1191 2003 1191 1497 
Q 1191 994 1439 701 
Q 1688 409 2113 409 
Q 2538 409 2786 701 
Q 3034 994 3034 1497 
Q 3034 2003 2786 2293 
Q 2538 2584 2113 2584 
z
M 3366 4563 
L 3366 3988 
Q 3128 4100 2886 4159 
Q 2644 4219 2406 4219 
Q 1781 4219 1451 3797 
Q 1122 3375 1075 2522 
Q 1259 2794 1537 2939 
Q 1816 3084 2150 3084 
Q 2853 3084 3261 2657 
Q 3669 2231 3669 1497 
Q 3669 778 3244 343 
Q 2819 -91 2113 -91 
Q 1303 -91 875 529 
Q 447 1150 447 2328 
Q 447 3434 972 4092 
Q 1497 4750 2381 4750 
Q 2619 4750 2861 4703 
Q 3103 4656 3366 4563 
z
" transform="scale(0.015625)"/>
       </defs>
       <use xlink:href="#DejaVuSans-36"/>
      </g>
     </g>
    </g>
    <g id="xtick_6">
     <g id="line2d_11">
      <path d="M 602.611031 384.48 
L 602.611031 51.84 
" clip-path="url(#pbbc8b4408f)" style="fill: none; stroke: #b0b0b0; stroke-width: 0.8; stroke-linecap: square"/>
     </g>
     <g id="line2d_12">
      <g>
       <use xlink:href="#m4aba354c68" x="602.611031" y="384.48" style="stroke: #000000; stroke-width: 0.8"/>
      </g>
     </g>
     <g id="text_6">
      <!-- 8 -->
      <g transform="translate(599.429781 399.078438) scale(0.1 -0.1)">
       <defs>
        <path id="DejaVuSans-38" d="M 2034 2216 
Q 1584 2216 1326 1975 
Q 1069 1734 1069 1313 
Q 1069 891 1326 650 
Q 1584 409 2034 409 
Q 2484 409 2743 651 
Q 3003 894 3003 1313 
Q 3003 1734 2745 1975 
Q 2488 2216 2034 2216 
z
M 1403 2484 
Q 997 2584 770 2862 
Q 544 3141 544 3541 
Q 544 4100 942 4425 
Q 1341 4750 2034 4750 
Q 2731 4750 3128 4425 
Q 3525 4100 3525 3541 
Q 3525 3141 3298 2862 
Q 3072 2584 2669 2484 
Q 3125 2378 3379 2068 
Q 3634 1759 3634 1313 
Q 3634 634 3220 271 
Q 2806 -91 2034 -91 
Q 1263 -91 848 271 
Q 434 634 434 1313 
Q 434 1759 690 2068 
Q 947 2378 1403 2484 
z
M 1172 3481 
Q 1172 3119 1398 2916 
Q 1625 2713 2034 2713 
Q 2441 2713 2670 2916 
Q 2900 3119 2900 3481 
Q 2900 3844 2670 4047 
Q 2441 4250 2034 4250 
Q 1625 4250 1398 4047 
Q 1172 3844 1172 3481 
z
" transform="scale(0.015625)"/>
       </defs>
       <use xlink:href="#DejaVuSans-38"/>
      </g>
     </g>
    </g>
    <g id="text_7">
     <!-- E -->
     <g transform="translate(365.840625 412.756563) scale(0.1 -0.1)">
      <defs>
       <path id="DejaVuSans-45" d="M 628 4666 
L 3578 4666 
L 3578 4134 
L 1259 4134 
L 1259 2753 
L 3481 2753 
L 3481 2222 
L 1259 2222 
L 1259 531 
L 3634 531 
L 3634 0 
L 628 0 
L 628 4666 
z
" transform="scale(0.015625)"/>
      </defs>
      <use xlink:href="#DejaVuSans-45"/>
     </g>
    </g>
   </g>
   <g id="matplotlib.axis_2">
    <g id="ytick_1">
     <g id="line2d_13">
      <path d="M 90 348.230435 
L 648 348.230435 
" clip-path="url(#pbbc8b4408f)" style="fill: none; stroke: #b0b0b0; stroke-width: 0.8; stroke-linecap: square"/>
     </g>
     <g id="line2d_14">
      <defs>
       <path id="mddc8b72bcc" d="M 0 0 
L -3.5 0 
" style="stroke: #000000; stroke-width: 0.8"/>
      </defs>
      <g>
       <use xlink:href="#mddc8b72bcc" x="90" y="348.230435" style="stroke: #000000; stroke-width: 0.8"/>
      </g>
     </g>
     <g id="text_8">
      <!-- 0 -->
      <g transform="translate(76.6375 352.029654) scale(0.1 -0.1)">
       <use xlink:href="#DejaVuSans-30"/>
      </g>
     </g>
    </g>
    <g id="ytick_2">
     <g id="line2d_15">
      <path d="M 90 311.2698 
L 648 311.2698 
" clip-path="url(#pbbc8b4408f)" style="fill: none; stroke: #b0b0b0; stroke-width: 0.8; stroke-linecap: square"/>
     </g>
     <g id="line2d_16">
      <g>
       <use xlink:href="#mddc8b72bcc" x="90" y="311.2698" style="stroke: #000000; stroke-width: 0.8"/>
      </g>
     </g>
     <g id="text_9">
      <!-- 2 -->
      <g transform="translate(76.6375 315.069019) scale(0.1 -0.1)">
       <use xlink:href="#DejaVuSans-32"/>
      </g>
     </g>
    </g>
    <g id="ytick_3">
     <g id="line2d_17">
      <path d="M 90 274.309165 
L 648 274.309165 
" clip-path="url(#pbbc8b4408f)" style="fill: none; stroke: #b0b0b0; stroke-width: 0.8; stroke-linecap: square"/>
     </g>
     <g id="line2d_18">
      <g>
       <use xlink:href="#mddc8b72bcc" x="90" y="274.309165" style="stroke: #000000; stroke-width: 0.8"/>
      </g>
     </g>
     <g id="text_10">
      <!-- 4 -->
      <g transform="translate(76.6375 278.108383) scale(0.1 -0.1)">
       <use xlink:href="#DejaVuSans-34"/>
      </g>
     </g>
    </g>
    <g id="ytick_4">
     <g id="line2d_19">
      <path d="M 90 237.348529 
L 648 237.348529 
" clip-path="url(#pbbc8b4408f)" style="fill: none; stroke: #b0b0b0; stroke-width: 0.8; stroke-linecap: square"/>
     </g>
     <g id="line2d_20">
      <g>
       <use xlink:href="#mddc8b72bcc" x="90" y="237.348529" style="stroke: #000000; stroke-width: 0.8"/>
      </g>
     </g>
     <g id="text_11">
      <!-- 6 -->
      <g transform="translate(76.6375 241.147748) scale(0.1 -0.1)">
       <use xlink:href="#DejaVuSans-36"/>
      </g>
     </g>
    </g>
    <g id="ytick_5">
     <g id="line2d_21">
      <path d="M 90 200.387894 
L 648 200.387894 
" clip-path="url(#pbbc8b4408f)" style="fill: none; stroke: #b0b0b0; stroke-width: 0.8; stroke-linecap: square"/>
     </g>
     <g id="line2d_22">
      <g>
       <use xlink:href="#mddc8b72bcc" x="90" y="200.387894" style="stroke: #000000; stroke-width: 0.8"/>
      </g>
     </g>
     <g id="text_12">
      <!-- 8 -->
      <g transform="translate(76.6375 204.187113) scale(0.1 -0.1)">
       <use xlink:href="#DejaVuSans-38"/>
      </g>
     </g>
    </g>
    <g id="ytick_6">
     <g id="line2d_23">
      <path d="M 90 163.427258 
L 648 163.427258 
" clip-path="url(#pbbc8b4408f)" style="fill: none; stroke: #b0b0b0; stroke-width: 0.8; stroke-linecap: square"/>
     </g>
     <g id="line2d_24">
      <g>
       <use xlink:href="#mddc8b72bcc" x="90" y="163.427258" style="stroke: #000000; stroke-width: 0.8"/>
      </g>
     </g>
     <g id="text_13">
      <!-- 10 -->
      <g transform="translate(70.275 167.226477) scale(0.1 -0.1)">
       <defs>
        <path id="DejaVuSans-31" d="M 794 531 
L 1825 531 
L 1825 4091 
L 703 3866 
L 703 4441 
L 1819 4666 
L 2450 4666 
L 2450 531 
L 3481 531 
L 3481 0 
L 794 0 
L 794 531 
z
" transform="scale(0.015625)"/>
       </defs>
       <use xlink:href="#DejaVuSans-31"/>
       <use xlink:href="#DejaVuSans-30" transform="translate(63.623047 0)"/>
      </g>
     </g>
    </g>
    <g id="ytick_7">
     <g id="line2d_25">
      <path d="M 90 126.466623 
L 648 126.466623 
" clip-path="url(#pbbc8b4408f)" style="fill: none; stroke: #b0b0b0; stroke-width: 0.8; stroke-linecap: square"/>
     </g>
     <g id="line2d_26">
      <g>
       <use xlink:href="#mddc8b72bcc" x="90" y="126.466623" style="stroke: #000000; stroke-width: 0.8"/>
      </g>
     </g>
     <g id="text_14">
      <!-- 12 -->
      <g transform="translate(70.275 130.265842) scale(0.1 -0.1)">
       <use xlink:href="#DejaVuSans-31"/>
       <use xlink:href="#DejaVuSans-32" transform="translate(63.623047 0)"/>
      </g>
     </g>
    </g>
    <g id="ytick_8">
     <g id="line2d_27">
      <path d="M 90 89.505988 
L 648 89.505988 
" clip-path="url(#pbbc8b4408f)" style="fill: none; stroke: #b0b0b0; stroke-width: 0.8; stroke-linecap: square"/>
     </g>
     <g id="line2d_28">
      <g>
       <use xlink:href="#mddc8b72bcc" x="90" y="89.505988" style="stroke: #000000; stroke-width: 0.8"/>
      </g>
     </g>
     <g id="text_15">
      <!-- 14 -->
      <g transform="translate(70.275 93.305206) scale(0.1 -0.1)">
       <use xlink:href="#DejaVuSans-31"/>
       <use xlink:href="#DejaVuSans-34" transform="translate(63.623047 0)"/>
      </g>
     </g>
    </g>
    <g id="ytick_9">
     <g id="line2d_29">
      <path d="M 90 52.545352 
L 648 52.545352 
" clip-path="url(#pbbc8b4408f)" style="fill: none; stroke: #b0b0b0; stroke-width: 0.8; stroke-linecap: square"/>
     </g>
     <g id="line2d_30">
      <g>
       <use xlink:href="#mddc8b72bcc" x="90" y="52.545352" style="stroke: #000000; stroke-width: 0.8"/>
      </g>
     </g>
     <g id="text_16">
      <!-- 16 -->
      <g transform="translate(70.275 56.344571) scale(0.1 -0.1)">
       <use xlink:href="#DejaVuSans-31"/>
       <use xlink:href="#DejaVuSans-36" transform="translate(63.623047 0)"/>
      </g>
     </g>
    </g>
    <g id="text_17">
     <!-- N -->
     <g transform="translate(64.195312 221.900625) rotate(-90) scale(0.1 -0.1)">
      <defs>
       <path id="DejaVuSans-4e" d="M 628 4666 
L 1478 4666 
L 3547 763 
L 3547 4666 
L 4159 4666 
L 4159 0 
L 3309 0 
L 1241 3903 
L 1241 0 
L 628 0 
L 628 4666 
z
" transform="scale(0.015625)"/>
      </defs>
      <use xlink:href="#DejaVuSans-4e"/>
     </g>
    </g>
   </g>
   <g id="line2d_31">
    <path d="M 179.81574 362.645083 
L 278.220323 362.645083 
L 327.422615 362.645083 
L 376.624906 362.645083 
L 425.827198 362.645083 
L 475.029489 362.645083 
L 524.231781 362.645083 
L 573.434072 362.645083 
L 622.636364 362.645083 
L 622.636364 344.164765 
L 622.636364 325.684448 
L 622.636364 307.20413 
L 622.636364 288.723812 
L 622.636364 270.243495 
L 622.636364 251.763177 
L 622.636364 233.282859 
L 622.636364 214.802542 
L 622.636364 196.322224 
L 622.636364 177.841906 
L 622.636364 159.361588 
L 622.636364 140.881271 
L 622.636364 122.400953 
L 622.636364 103.920635 
L 622.636364 85.440318 
L 622.636364 66.96 
L 573.434072 66.96 
L 524.231781 66.96 
L 475.029489 66.96 
L 425.827198 66.96 
L 376.624906 66.96 
L 327.422615 66.96 
L 278.220323 66.96 
L 229.018032 66.96 
L 179.81574 66.96 
L 179.81574 85.440318 
L 179.81574 103.920635 
L 179.81574 122.400953 
L 179.81574 140.881271 
L 130.613449 159.361588 
L 130.613449 177.841906 
L 130.613449 196.322224 
L 130.613449 214.802542 
L 130.613449 233.282859 
L 130.613449 251.763177 
L 130.613449 270.243495 
L 130.613449 288.723812 
L 130.613449 307.20413 
L 130.613449 325.684448 
L 130.613449 344.164765 
L 179.81574 362.645083 
" clip-path="url(#pbbc8b4408f)" style="fill: none; stroke: #0000ff; stroke-linecap: square"/>
    <defs>
     <path id="m6654dea514" d="M 0 2 
C 0.530406 2 1.03916 1.789267 1.414214 1.414214 
C 1.789267 1.03916 2 0.530406 2 0 
C 2 -0.530406 1.789267 -1.03916 1.414214 -1.414214 
C 1.03916 -1.789267 0.530406 -2 0 -2 
C -0.530406 -2 -1.03916 -1.789267 -1.414214 -1.414214 
C -1.789267 -1.03916 -2 -0.530406 -2 0 
C -2 0.530406 -1.789267 1.03916 -1.414214 1.414214 
C -1.03916 1.789267 -0.530406 2 0 2 
z
" style="stroke: #0000ff"/>
    </defs>
    <g clip-path="url(#pbbc8b4408f)">
     <use xlink:href="#m6654dea514" x="179.81574" y="362.645083" style="fill: #0000ff; stroke: #0000ff"/>
     <use xlink:href="#m6654dea514" x="278.220323" y="362.645083" style="fill: #0000ff; stroke: #0000ff"/>
     <use xlink:href="#m6654dea514" x="327.422615" y="362.645083" style="fill: #0000ff; stroke: #0000ff"/>
     <use xlink:href="#m6654dea514" x="376.624906" y="362.645083" style="fill: #0000ff; stroke: #0000ff"/>
     <use xlink:href="#m6654dea514" x="425.827198" y="362.645083" style="fill: #0000ff; stroke: #0000ff"/>
     <use xlink:href="#m6654dea514" x="475.029489" y="362.645083" style="fill: #0000ff; stroke: #0000ff"/>
     <use xlink:href="#m6654dea514" x="524.231781" y="362.645083" style="fill: #0000ff; stroke: #0000ff"/>
     <use xlink:href="#m6654dea514" x="573.434072" y="362.645083" style="fill: #0000ff; stroke: #0000ff"/>
     <use xlink:href="#m6654dea514" x="622.636364" y="362.645083" style="fill: #0000ff; stroke: #0000ff"/>
     <use xlink:href="#m6654dea514" x="622.636364" y="344.164765" style="fill: #0000ff; stroke: #0000ff"/>
     <use xlink:href="#m6654dea514" x="622.636364" y="325.684448" style="fill: #0000ff; stroke: #0000ff"/>
     <use xlink:href="#m6654dea514" x="622.636364" y="307.20413" style="fill: #0000ff; stroke: #0000ff"/>
     <use xlink:href="#m6654dea514" x="622.636364" y="288.723812" style="fill: #0000ff; stroke: #0000ff"/>
     <use xlink:href="#m6654dea514" x="622.636364" y="270.243495" style="fill: #0000ff; stroke: #0000ff"/>
     <use xlink:href="#m6654dea514" x="622.636364" y="251.763177" style="fill: #0000ff; stroke: #0000ff"/>
     <use xlink:href="#m6654dea514" x="622.636364" y="233.282859" style="fill: #0000ff; stroke: #0000ff"/>
     <use xlink:href="#m6654dea514" x="622.636364" y="214.802542" style="fill: #0000ff; stroke: #0000ff"/>
     <use xlink:href="#m6654dea514" x="622.636364" y="196.322224" style="fill: #0000ff; stroke: #0000ff"/>
     <use xlink:href="#m6654dea514" x="622.636364" y="177.841906" style="fill: #0000ff; stroke: #0000ff"/>
     <use xlink:href="#m6654dea514" x="622.636364" y="159.361588" style="fill: #0000ff; stroke: #0000ff"/>
     <use xlink:href="#m6654dea514" x="622.636364" y="140.881271" style="fill: #0000ff; stroke: #0000ff"/>
     <use xlink:href="#m6654dea514" x="622.636364" y="122.400953" style="fill: #0000ff; stroke: #0000ff"/>
     <use xlink:href="#m6654dea514" x="622.636364" y="103.920635" style="fill: #0000ff; stroke: #0000ff"/>
     <use xlink:href="#m6654dea514" x="622.636364" y="85.440318" style="fill: #0000ff; stroke: #0000ff"/>
     <use xlink:href="#m6654dea514" x="622.636364" y="66.96" style="fill: #0000ff; stroke: #0000ff"/>
     <use xlink:href="#m6654dea514" x="573.434072" y="66.96" style="fill: #0000ff; stroke: #0000ff"/>
     <use xlink:href="#m6654dea514" x="524.231781" y="66.96" style="fill: #0000ff; stroke: #0000ff"/>
     <use xlink:href="#m6654dea514" x="475.029489" y="66.96" style="fill: #0000ff; stroke: #0000ff"/>
     <use xlink:href="#m6654dea514" x="425.827198" y="66.96" style="fill: #0000ff; stroke: #0000ff"/>
     <use xlink:href="#m6654dea514" x="376.624906" y="66.96" style="fill: #0000ff; stroke: #0000ff"/>
     <use xlink:href="#m6654dea514" x="327.422615" y="66.96" style="fill: #0000ff; stroke: #0000ff"/>
     <use xlink:href="#m6654dea514" x="278.220323" y="66.96" style="fill: #0000ff; stroke: #0000ff"/>
     <use xlink:href="#m6654dea514" x="229.018032" y="66.96" style="fill: #0000ff; stroke: #0000ff"/>
     <use xlink:href="#m6654dea514" x="179.81574" y="66.96" style="fill: #0000ff; stroke: #0000ff"/>
     <use xlink:href="#m6654dea514" x="179.81574" y="85.440318" style="fill: #0000ff; stroke: #0000ff"/>
     <use xlink:href="#m6654dea514" x="179.81574" y="103.920635" style="fill: #0000ff; stroke: #0000ff"/>
     <use xlink:href="#m6654dea514" x="179.81574" y="122.400953" style="fill: #0000ff; stroke: #0000ff"/>
     <use xlink:href="#m6654dea514" x="179.81574" y="140.881271" style="fill: #0000ff; stroke: #0000ff"/>
     <use xlink:href="#m6654dea514" x="130.613449" y="159.361588" style="fill: #0000ff; stroke: #0000ff"/>
     <use xlink:href="#m6654dea514" x="130.613449" y="177.841906" style="fill: #0000ff; stroke: #0000ff"/>
     <use xlink:href="#m6654dea514" x="130.613449" y="196.322224" style="fill: #0000ff; stroke: #0000ff"/>
     <use xlink:href="#m6654dea514" x="130.613449" y="214.802542" style="fill: #0000ff; stroke: #0000ff"/>
     <use xlink:href="#m6654dea514" x="130.613449" y="233.282859" style="fill: #0000ff; stroke: #0000ff"/>
     <use xlink:href="#m6654dea514" x="130.613449" y="251.763177" style="fill: #0000ff; stroke: #0000ff"/>
     <use xlink:href="#m6654dea514" x="130.613449" y="270.243495" style="fill: #0000ff; stroke: #0000ff"/>
     <use xlink:href="#m6654dea514" x="130.613449" y="288.723812" style="fill: #0000ff; stroke: #0000ff"/>
     <use xlink:href="#m6654dea514" x="130.613449" y="307.20413" style="fill: #0000ff; stroke: #0000ff"/>
     <use xlink:href="#m6654dea514" x="130.613449" y="325.684448" style="fill: #0000ff; stroke: #0000ff"/>
     <use xlink:href="#m6654dea514" x="130.613449" y="344.164765" style="fill: #0000ff; stroke: #0000ff"/>
     <use xlink:href="#m6654dea514" x="179.81574" y="362.645083" style="fill: #0000ff; stroke: #0000ff"/>
    </g>
   </g>
   <g id="line2d_32">
    <path d="M 171.160236 359.60591 
L 391.201959 365.430528 
L 434.704593 357.583289 
L 360.374036 369.36 
L 475.968069 356.774643 
L 469.051972 356.984973 
L 482.013618 359.006327 
L 584.99602 355.590635 
L 518.204707 366.551563 
L 544.61974 348.920227 
L 590.47383 339.799611 
L 578.046027 338.323605 
L 565.393446 300.351169 
L 614.4977 293.313251 
L 598.566808 285.689439 
L 589.987696 292.475488 
L 592.443729 260.216016 
L 590.967279 191.970686 
L 591.571585 168.226167 
L 600.588321 162.396327 
L 600.84811 165.449833 
L 592.022553 78.795532 
L 590.608681 82.150817 
L 590.961498 78.689348 
L 571.149635 75.908738 
L 590.001351 110.878795 
L 573.736151 75.317731 
L 368.960882 66.96 
L 407.85392 66.96 
L 341.793665 66.96 
L 362.50136 66.96 
L 252.702367 66.96 
L 196.03656 78.81119 
L 151.763375 75.364615 
L 143.408397 100.773654 
L 146.908256 100.737673 
L 148.772057 127.78073 
L 153.474626 131.132116 
L 153.098747 115.186269 
L 115.363636 157.923651 
L 156.567088 262.213747 
L 129.27309 188.47894 
L 152.041407 249.8603 
L 155.22238 261.650863 
L 159.939939 309.803869 
L 147.233646 280.017351 
L 147.233646 280.017351 
L 152.232358 288.828787 
L 274.514994 368.362605 
L 237.113888 365.943244 
" clip-path="url(#pbbc8b4408f)" style="fill: none; stroke: #ff0000; stroke-linecap: square"/>
    <defs>
     <path id="m78c3ff4b64" d="M 0 -2 
L -2 2 
L 2 2 
z
" style="stroke: #ff0000; stroke-linejoin: miter"/>
    </defs>
    <g clip-path="url(#pbbc8b4408f)">
     <use xlink:href="#m78c3ff4b64" x="171.160236" y="359.60591" style="fill: #ff0000; stroke: #ff0000; stroke-linejoin: miter"/>
     <use xlink:href="#m78c3ff4b64" x="391.201959" y="365.430528" style="fill: #ff0000; stroke: #ff0000; stroke-linejoin: miter"/>
     <use xlink:href="#m78c3ff4b64" x="434.704593" y="357.583289" style="fill: #ff0000; stroke: #ff0000; stroke-linejoin: miter"/>
     <use xlink:href="#m78c3ff4b64" x="360.374036" y="369.36" style="fill: #ff0000; stroke: #ff0000; stroke-linejoin: miter"/>
     <use xlink:href="#m78c3ff4b64" x="475.968069" y="356.774643" style="fill: #ff0000; stroke: #ff0000; stroke-linejoin: miter"/>
     <use xlink:href="#m78c3ff4b64" x="469.051972" y="356.984973" style="fill: #ff0000; stroke: #ff0000; stroke-linejoin: miter"/>
     <use xlink:href="#m78c3ff4b64" x="482.013618" y="359.006327" style="fill: #ff0000; stroke: #ff0000; stroke-linejoin: miter"/>
     <use xlink:href="#m78c3ff4b64" x="584.99602" y="355.590635" style="fill: #ff0000; stroke: #ff0000; stroke-linejoin: miter"/>
     <use xlink:href="#m78c3ff4b64" x="518.204707" y="366.551563" style="fill: #ff0000; stroke: #ff0000; stroke-linejoin: miter"/>
     <use xlink:href="#m78c3ff4b64" x="544.61974" y="348.920227" style="fill: #ff0000; stroke: #ff0000; stroke-linejoin: miter"/>
     <use xlink:href="#m78c3ff4b64" x="590.47383" y="339.799611" style="fill: #ff0000; stroke: #ff0000; stroke-linejoin: miter"/>
     <use xlink:href="#m78c3ff4b64" x="578.046027" y="338.323605" style="fill: #ff0000; stroke: #ff0000; stroke-linejoin: miter"/>
     <use xlink:href="#m78c3ff4b64" x="565.393446" y="300.351169" style="fill: #ff0000; stroke: #ff0000; stroke-linejoin: miter"/>
     <use xlink:href="#m78c3ff4b64" x="614.4977" y="293.313251" style="fill: #ff0000; stroke: #ff0000; stroke-linejoin: miter"/>
     <use xlink:href="#m78c3ff4b64" x="598.566808" y="285.689439" style="fill: #ff0000; stroke: #ff0000; stroke-linejoin: miter"/>
     <use xlink:href="#m78c3ff4b64" x="589.987696" y="292.475488" style="fill: #ff0000; stroke: #ff0000; stroke-linejoin: miter"/>
     <use xlink:href="#m78c3ff4b64" x="592.443729" y="260.216016" style="fill: #ff0000; stroke: #ff0000; stroke-linejoin: miter"/>
     <use xlink:href="#m78c3ff4b64" x="590.967279" y="191.970686" style="fill: #ff0000; stroke: #ff0000; stroke-linejoin: miter"/>
     <use xlink:href="#m78c3ff4b64" x="591.571585" y="168.226167" style="fill: #ff0000; stroke: #ff0000; stroke-linejoin: miter"/>
     <use xlink:href="#m78c3ff4b64" x="600.588321" y="162.396327" style="fill: #ff0000; stroke: #ff0000; stroke-linejoin: miter"/>
     <use xlink:href="#m78c3ff4b64" x="600.84811" y="165.449833" style="fill: #ff0000; stroke: #ff0000; stroke-linejoin: miter"/>
     <use xlink:href="#m78c3ff4b64" x="592.022553" y="78.795532" style="fill: #ff0000; stroke: #ff0000; stroke-linejoin: miter"/>
     <use xlink:href="#m78c3ff4b64" x="590.608681" y="82.150817" style="fill: #ff0000; stroke: #ff0000; stroke-linejoin: miter"/>
     <use xlink:href="#m78c3ff4b64" x="590.961498" y="78.689348" style="fill: #ff0000; stroke: #ff0000; stroke-linejoin: miter"/>
     <use xlink:href="#m78c3ff4b64" x="571.149635" y="75.908738" style="fill: #ff0000; stroke: #ff0000; stroke-linejoin: miter"/>
     <use xlink:href="#m78c3ff4b64" x="590.001351" y="110.878795" style="fill: #ff0000; stroke: #ff0000; stroke-linejoin: miter"/>
     <use xlink:href="#m78c3ff4b64" x="573.736151" y="75.317731" style="fill: #ff0000; stroke: #ff0000; stroke-linejoin: miter"/>
     <use xlink:href="#m78c3ff4b64" x="368.960882" y="66.96" style="fill: #ff0000; stroke: #ff0000; stroke-linejoin: miter"/>
     <use xlink:href="#m78c3ff4b64" x="407.85392" y="66.96" style="fill: #ff0000; stroke: #ff0000; stroke-linejoin: miter"/>
     <use xlink:href="#m78c3ff4b64" x="341.793665" y="66.96" style="fill: #ff0000; stroke: #ff0000; stroke-linejoin: miter"/>
     <use xlink:href="#m78c3ff4b64" x="362.50136" y="66.96" style="fill: #ff0000; stroke: #ff0000; stroke-linejoin: miter"/>
     <use xlink:href="#m78c3ff4b64" x="252.702367" y="66.96" style="fill: #ff0000; stroke: #ff0000; stroke-linejoin: miter"/>
     <use xlink:href="#m78c3ff4b64" x="196.03656" y="78.81119" style="fill: #ff0000; stroke: #ff0000; stroke-linejoin: miter"/>
     <use xlink:href="#m78c3ff4b64" x="151.763375" y="75.364615" style="fill: #ff0000; stroke: #ff0000; stroke-linejoin: miter"/>
     <use xlink:href="#m78c3ff4b64" x="143.408397" y="100.773654" style="fill: #ff0000; stroke: #ff0000; stroke-linejoin: miter"/>
     <use xlink:href="#m78c3ff4b64" x="146.908256" y="100.737673" style="fill: #ff0000; stroke: #ff0000; stroke-linejoin: miter"/>
     <use xlink:href="#m78c3ff4b64" x="148.772057" y="127.78073" style="fill: #ff0000; stroke: #ff0000; stroke-linejoin: miter"/>
     <use xlink:href="#m78c3ff4b64" x="153.474626" y="131.132116" style="fill: #ff0000; stroke: #ff0000; stroke-linejoin: miter"/>
     <use xlink:href="#m78c3ff4b64" x="153.098747" y="115.186269" style="fill: #ff0000; stroke: #ff0000; stroke-linejoin: miter"/>
     <use xlink:href="#m78c3ff4b64" x="115.363636" y="157.923651" style="fill: #ff0000; stroke: #ff0000; stroke-linejoin: miter"/>
     <use xlink:href="#m78c3ff4b64" x="156.567088" y="262.213747" style="fill: #ff0000; stroke: #ff0000; stroke-linejoin: miter"/>
     <use xlink:href="#m78c3ff4b64" x="129.27309" y="188.47894" style="fill: #ff0000; stroke: #ff0000; stroke-linejoin: miter"/>
     <use xlink:href="#m78c3ff4b64" x="152.041407" y="249.8603" style="fill: #ff0000; stroke: #ff0000; stroke-linejoin: miter"/>
     <use xlink:href="#m78c3ff4b64" x="155.22238" y="261.650863" style="fill: #ff0000; stroke: #ff0000; stroke-linejoin: miter"/>
     <use xlink:href="#m78c3ff4b64" x="159.939939" y="309.803869" style="fill: #ff0000; stroke: #ff0000; stroke-linejoin: miter"/>
     <use xlink:href="#m78c3ff4b64" x="147.233646" y="280.017351" style="fill: #ff0000; stroke: #ff0000; stroke-linejoin: miter"/>
     <use xlink:href="#m78c3ff4b64" x="147.233646" y="280.017351" style="fill: #ff0000; stroke: #ff0000; stroke-linejoin: miter"/>
     <use xlink:href="#m78c3ff4b64" x="152.232358" y="288.828787" style="fill: #ff0000; stroke: #ff0000; stroke-linejoin: miter"/>
     <use xlink:href="#m78c3ff4b64" x="274.514994" y="368.362605" style="fill: #ff0000; stroke: #ff0000; stroke-linejoin: miter"/>
     <use xlink:href="#m78c3ff4b64" x="237.113888" y="365.943244" style="fill: #ff0000; stroke: #ff0000; stroke-linejoin: miter"/>
    </g>
   </g>
   <g id="patch_3">
    <path d="M 90 384.48 
L 90 51.84 
" style="fill: none; stroke: #000000; stroke-width: 0.8; stroke-linejoin: miter; stroke-linecap: square"/>
   </g>
   <g id="patch_4">
    <path d="M 648 384.48 
L 648 51.84 
" style="fill: none; stroke: #000000; stroke-width: 0.8; stroke-linejoin: miter; stroke-linecap: square"/>
   </g>
   <g id="patch_5">
    <path d="M 90 384.48 
L 648 384.48 
" style="fill: none; stroke: #000000; stroke-width: 0.8; stroke-linejoin: miter; stroke-linecap: square"/>
   </g>
   <g id="patch_6">
    <path d="M 90 51.84 
L 648 51.84 
" style="fill: none; stroke: #000000; stroke-width: 0.8; stroke-linejoin: miter; stroke-linecap: square"/>
   </g>
   <g id="legend_1">
    <g id="patch_7">
     <path d="M 327.823438 234.338125 
L 410.176563 234.338125 
Q 412.176563 234.338125 412.176563 232.338125 
L 412.176563 203.981875 
Q 412.176563 201.981875 410.176563 201.981875 
L 327.823438 201.981875 
Q 325.823438 201.981875 325.823438 203.981875 
L 325.823438 232.338125 
Q 325.823438 234.338125 327.823438 234.338125 
z
" style="fill: #ffffff; opacity: 0.8; stroke: #cccccc; stroke-linejoin: miter"/>
    </g>
    <g id="line2d_33">
     <path d="M 329.823438 210.080312 
L 339.823438 210.080312 
L 349.823438 210.080312 
" style="fill: none; stroke: #0000ff; stroke-linecap: square"/>
     <g>
      <use xlink:href="#m6654dea514" x="339.823438" y="210.080312" style="fill: #0000ff; stroke: #0000ff"/>
     </g>
    </g>
    <g id="text_18">
     <!-- Reference -->
     <g transform="translate(357.823438 213.580312) scale(0.1 -0.1)">
      <defs>
       <path id="DejaVuSans-52" d="M 2841 2188 
Q 3044 2119 3236 1894 
Q 3428 1669 3622 1275 
L 4263 0 
L 3584 0 
L 2988 1197 
Q 2756 1666 2539 1819 
Q 2322 1972 1947 1972 
L 1259 1972 
L 1259 0 
L 628 0 
L 628 4666 
L 2053 4666 
Q 2853 4666 3247 4331 
Q 3641 3997 3641 3322 
Q 3641 2881 3436 2590 
Q 3231 2300 2841 2188 
z
M 1259 4147 
L 1259 2491 
L 2053 2491 
Q 2509 2491 2742 2702 
Q 2975 2913 2975 3322 
Q 2975 3731 2742 3939 
Q 2509 4147 2053 4147 
L 1259 4147 
z
" transform="scale(0.015625)"/>
       <path id="DejaVuSans-65" d="M 3597 1894 
L 3597 1613 
L 953 1613 
Q 991 1019 1311 708 
Q 1631 397 2203 397 
Q 2534 397 2845 478 
Q 3156 559 3463 722 
L 3463 178 
Q 3153 47 2828 -22 
Q 2503 -91 2169 -91 
Q 1331 -91 842 396 
Q 353 884 353 1716 
Q 353 2575 817 3079 
Q 1281 3584 2069 3584 
Q 2775 3584 3186 3129 
Q 3597 2675 3597 1894 
z
M 3022 2063 
Q 3016 2534 2758 2815 
Q 2500 3097 2075 3097 
Q 1594 3097 1305 2825 
Q 1016 2553 972 2059 
L 3022 2063 
z
" transform="scale(0.015625)"/>
       <path id="DejaVuSans-66" d="M 2375 4863 
L 2375 4384 
L 1825 4384 
Q 1516 4384 1395 4259 
Q 1275 4134 1275 3809 
L 1275 3500 
L 2222 3500 
L 2222 3053 
L 1275 3053 
L 1275 0 
L 697 0 
L 697 3053 
L 147 3053 
L 147 3500 
L 697 3500 
L 697 3744 
Q 697 4328 969 4595 
Q 1241 4863 1831 4863 
L 2375 4863 
z
" transform="scale(0.015625)"/>
       <path id="DejaVuSans-72" d="M 2631 2963 
Q 2534 3019 2420 3045 
Q 2306 3072 2169 3072 
Q 1681 3072 1420 2755 
Q 1159 2438 1159 1844 
L 1159 0 
L 581 0 
L 581 3500 
L 1159 3500 
L 1159 2956 
Q 1341 3275 1631 3429 
Q 1922 3584 2338 3584 
Q 2397 3584 2469 3576 
Q 2541 3569 2628 3553 
L 2631 2963 
z
" transform="scale(0.015625)"/>
       <path id="DejaVuSans-6e" d="M 3513 2113 
L 3513 0 
L 2938 0 
L 2938 2094 
Q 2938 2591 2744 2837 
Q 2550 3084 2163 3084 
Q 1697 3084 1428 2787 
Q 1159 2491 1159 1978 
L 1159 0 
L 581 0 
L 581 3500 
L 1159 3500 
L 1159 2956 
Q 1366 3272 1645 3428 
Q 1925 3584 2291 3584 
Q 2894 3584 3203 3211 
Q 3513 2838 3513 2113 
z
" transform="scale(0.015625)"/>
       <path id="DejaVuSans-63" d="M 3122 3366 
L 3122 2828 
Q 2878 2963 2633 3030 
Q 2388 3097 2138 3097 
Q 1578 3097 1268 2742 
Q 959 2388 959 1747 
Q 959 1106 1268 751 
Q 1578 397 2138 397 
Q 2388 397 2633 464 
Q 2878 531 3122 666 
L 3122 134 
Q 2881 22 2623 -34 
Q 2366 -91 2075 -91 
Q 1284 -91 818 406 
Q 353 903 353 1747 
Q 353 2603 823 3093 
Q 1294 3584 2113 3584 
Q 2378 3584 2631 3529 
Q 2884 3475 3122 3366 
z
" transform="scale(0.015625)"/>
      </defs>
      <use xlink:href="#DejaVuSans-52"/>
      <use xlink:href="#DejaVuSans-65" transform="translate(64.982422 0)"/>
      <use xlink:href="#DejaVuSans-66" transform="translate(126.505859 0)"/>
      <use xlink:href="#DejaVuSans-65" transform="translate(161.710938 0)"/>
      <use xlink:href="#DejaVuSans-72" transform="translate(223.234375 0)"/>
      <use xlink:href="#DejaVuSans-65" transform="translate(262.097656 0)"/>
      <use xlink:href="#DejaVuSans-6e" transform="translate(323.621094 0)"/>
      <use xlink:href="#DejaVuSans-63" transform="translate(387 0)"/>
      <use xlink:href="#DejaVuSans-65" transform="translate(441.980469 0)"/>
     </g>
    </g>
    <g id="line2d_34">
     <path d="M 329.823438 224.758437 
L 339.823438 224.758437 
L 349.823438 224.758437 
" style="fill: none; stroke: #ff0000; stroke-linecap: square"/>
     <g>
      <use xlink:href="#m78c3ff4b64" x="339.823438" y="224.758437" style="fill: #ff0000; stroke: #ff0000; stroke-linejoin: miter"/>
     </g>
    </g>
    <g id="text_19">
     <!-- Ours -->
     <g transform="translate(357.823438 228.258437) scale(0.1 -0.1)">
      <defs>
       <path id="DejaVuSans-4f" d="M 2522 4238 
Q 1834 4238 1429 3725 
Q 1025 3213 1025 2328 
Q 1025 1447 1429 934 
Q 1834 422 2522 422 
Q 3209 422 3611 934 
Q 4013 1447 4013 2328 
Q 4013 3213 3611 3725 
Q 3209 4238 2522 4238 
z
M 2522 4750 
Q 3503 4750 4090 4092 
Q 4678 3434 4678 2328 
Q 4678 1225 4090 567 
Q 3503 -91 2522 -91 
Q 1538 -91 948 565 
Q 359 1222 359 2328 
Q 359 3434 948 4092 
Q 1538 4750 2522 4750 
z
" transform="scale(0.015625)"/>
       <path id="DejaVuSans-75" d="M 544 1381 
L 544 3500 
L 1119 3500 
L 1119 1403 
Q 1119 906 1312 657 
Q 1506 409 1894 409 
Q 2359 409 2629 706 
Q 2900 1003 2900 1516 
L 2900 3500 
L 3475 3500 
L 3475 0 
L 2900 0 
L 2900 538 
Q 2691 219 2414 64 
Q 2138 -91 1772 -91 
Q 1169 -91 856 284 
Q 544 659 544 1381 
z
M 1991 3584 
L 1991 3584 
z
" transform="scale(0.015625)"/>
       <path id="DejaVuSans-73" d="M 2834 3397 
L 2834 2853 
Q 2591 2978 2328 3040 
Q 2066 3103 1784 3103 
Q 1356 3103 1142 2972 
Q 928 2841 928 2578 
Q 928 2378 1081 2264 
Q 1234 2150 1697 2047 
L 1894 2003 
Q 2506 1872 2764 1633 
Q 3022 1394 3022 966 
Q 3022 478 2636 193 
Q 2250 -91 1575 -91 
Q 1294 -91 989 -36 
Q 684 19 347 128 
L 347 722 
Q 666 556 975 473 
Q 1284 391 1588 391 
Q 1994 391 2212 530 
Q 2431 669 2431 922 
Q 2431 1156 2273 1281 
Q 2116 1406 1581 1522 
L 1381 1569 
Q 847 1681 609 1914 
Q 372 2147 372 2553 
Q 372 3047 722 3315 
Q 1072 3584 1716 3584 
Q 2034 3584 2315 3537 
Q 2597 3491 2834 3397 
z
" transform="scale(0.015625)"/>
      </defs>
      <use xlink:href="#DejaVuSans-4f"/>
      <use xlink:href="#DejaVuSans-75" transform="translate(78.710938 0)"/>
      <use xlink:href="#DejaVuSans-72" transform="translate(142.089844 0)"/>
      <use xlink:href="#DejaVuSans-73" transform="translate(183.203125 0)"/>
     </g>
    </g>
   </g>
  </g>
 </g>
 <defs>
  <clipPath id="pbbc8b4408f">
   <rect x="90" y="51.84" width="558" height="332.64"/>
  </clipPath>
 </defs>
</svg>
